<?xml version="1.0" encoding="UTF-8" standalone="no"?>
<!-- Created with Inkscape (http://www.inkscape.org/) -->

<svg
   width="3840"
   height="2160"
   viewBox="0 0 1016 571.50001"
   version="1.1"
   id="svg369542"
   inkscape:version="1.1.1 (3bf5ae0d25, 2021-09-20, custom)"
   sodipodi:docname="background-koyu.svg"
   inkscape:export-filename="/home/elsub/Masaüstü/background-koyu.png"
   inkscape:export-xdpi="96"
   inkscape:export-ydpi="96"
   xmlns:inkscape="http://www.inkscape.org/namespaces/inkscape"
   xmlns:sodipodi="http://sodipodi.sourceforge.net/DTD/sodipodi-0.dtd"
   xmlns:xlink="http://www.w3.org/1999/xlink"
   xmlns="http://www.w3.org/2000/svg"
   xmlns:svg="http://www.w3.org/2000/svg"
   xmlns:rdf="http://www.w3.org/1999/02/22-rdf-syntax-ns#"
   xmlns:cc="http://creativecommons.org/ns#"
   xmlns:dc="http://purl.org/dc/elements/1.1/">
  <sodipodi:namedview
     id="namedview369544"
     pagecolor="#3e3e3e"
     bordercolor="#666666"
     borderopacity="1.0"
     inkscape:pageshadow="2"
     inkscape:pageopacity="1"
     inkscape:pagecheckerboard="false"
     inkscape:document-units="mm"
     showgrid="false"
     units="px"
     inkscape:zoom="0.19842738"
     inkscape:cx="2671.0024"
     inkscape:cy="345.21446"
     inkscape:window-width="1920"
     inkscape:window-height="1000"
     inkscape:window-x="0"
     inkscape:window-y="20"
     inkscape:window-maximized="1"
     inkscape:current-layer="g105563"
     inkscape:snap-global="false" />
  <defs
     id="defs369539">
    <linearGradient
       inkscape:collect="always"
       id="linearGradient1007">
      <stop
         style="stop-color:#6d6d6d;stop-opacity:1"
         offset="0"
         id="stop1003" />
      <stop
         style="stop-color:#4d4d4d;stop-opacity:1"
         offset="1"
         id="stop1005" />
    </linearGradient>
    <inkscape:path-effect
       effect="fillet_chamfer"
       id="path-effect98579"
       is_visible="true"
       lpeversion="1"
       satellites_param="F,0,0,1,0,0.26458333,0,1 @ F,0,0,1,0,0.26458333,0,1 @ F,0,0,1,0,0.26458333,0,1 @ F,0,0,1,0,0.26458333,0,1"
       unit="px"
       method="auto"
       mode="F"
       radius="1"
       chamfer_steps="1"
       flexible="false"
       use_knot_distance="true"
       apply_no_radius="true"
       apply_with_radius="true"
       only_selected="false"
       hide_knots="false" />
    <color-profile
       name="X550VX"
       xlink:href="../.local/share/icc/edid-027bc3a107f13fc5281741609b32db36.icc"
       id="color-profile1227" />
    <filter
       inkscape:collect="always"
       style="color-interpolation-filters:sRGB"
       id="filter130175"
       x="-0.047951531"
       y="-0.04804857"
       width="1.0959031"
       height="1.0960971">
      <feGaussianBlur
         inkscape:collect="always"
         stdDeviation="3.6907615"
         id="feGaussianBlur130177" />
    </filter>
    <radialGradient
       inkscape:collect="always"
       xlink:href="#linearGradient1007"
       id="radialGradient1009"
       cx="373.72983"
       cy="893.00848"
       fx="373.72983"
       fy="893.00848"
       r="414.84393"
       gradientTransform="matrix(1.0367472,0,0,0.55513199,-13.733528,397.2709)"
       gradientUnits="userSpaceOnUse" />
  </defs>
  <g
     inkscape:label="Katman 1"
     inkscape:groupmode="layer"
     id="layer1">
    <g
       id="g342501"
       transform="matrix(0.71615617,0,0,0.71615617,-0.5018178,2.5057979)"
       style="fill:#1f549e;fill-opacity:1">
      <g
         id="g342401"
         transform="matrix(0.7936967,0,0,0.7936967,363.80533,-3.536509)"
         style="fill:#1f549e;fill-opacity:1" />
      <g
         id="g342499"
         transform="matrix(1.709902,0,0,1.7325968,79.788353,-1421.9892)"
         style="fill:#1f549e;fill-opacity:1">
        <g
           id="g73263"
           transform="translate(0,-14.660311)">
          <g
             id="g73248"
             transform="translate(2.4365)" />
        </g>
        <g
           inkscape:export-ydpi="598.79999"
           inkscape:export-xdpi="598.79999"
           inkscape:export-filename="D:\Dropbox\PiSiLinux\logo\g4295-7-3.png"
           transform="translate(4.4166628,858.48748)"
           id="g342403"
           style="fill:#1f549e;fill-opacity:1" />
        <g
           inkscape:export-ydpi="598.79999"
           inkscape:export-xdpi="598.79999"
           inkscape:export-filename="D:\Dropbox\PiSiLinux\logo\g4295-7-3.png"
           transform="translate(3.8787028,858.0599)"
           id="g342495"
           style="fill:#1f549e;fill-opacity:1">
          <g
             id="g342475"
             style="fill:#1f549e;fill-opacity:1">
            <g
               id="g342465"
               style="fill:#1f549e;fill-opacity:1">
              <linearGradient
                 y2="103.7656"
                 x2="46.650902"
                 y1="103.7656"
                 x1="16.9111"
                 gradientUnits="userSpaceOnUse"
                 id="linearGradient342463">
                <stop
                   id="stop342459"
                   style="stop-color:#EC008C"
                   offset="0" />
                <stop
                   id="stop342461"
                   style="stop-color:#C4008C"
                   offset="1" />
              </linearGradient>
            </g>
            <g
               id="g342473"
               style="fill:#1f549e;fill-opacity:1">
              <linearGradient
                 y2="104.6143"
                 x2="53.023399"
                 y1="104.6143"
                 x1="23.283199"
                 gradientUnits="userSpaceOnUse"
                 id="linearGradient342471">
                <stop
                   id="stop342467"
                   style="stop-color:#EC008C"
                   offset="0" />
                <stop
                   id="stop342469"
                   style="stop-color:#C4008C"
                   offset="1" />
              </linearGradient>
            </g>
          </g>
          <g
             id="g342493"
             style="fill:#1f549e;fill-opacity:1">
            <g
               id="g342483"
               style="fill:#1f549e;fill-opacity:1">
              <linearGradient
                 y2="103.7656"
                 x2="111.0859"
                 y1="103.7656"
                 x1="81.346703"
                 gradientUnits="userSpaceOnUse"
                 id="linearGradient342481">
                <stop
                   id="stop342477"
                   style="stop-color:#EC008C"
                   offset="0" />
                <stop
                   id="stop342479"
                   style="stop-color:#C4008C"
                   offset="1" />
              </linearGradient>
            </g>
            <g
               id="g342491"
               style="fill:#1f549e;fill-opacity:1">
              <linearGradient
                 y2="104.6133"
                 x2="104.7119"
                 y1="104.6133"
                 x1="74.973602"
                 gradientUnits="userSpaceOnUse"
                 id="linearGradient342489">
                <stop
                   id="stop342485"
                   style="stop-color:#EC008C"
                   offset="0" />
                <stop
                   id="stop342487"
                   style="stop-color:#C4008C"
                   offset="1" />
              </linearGradient>
            </g>
          </g>
        </g>
        <g
           inkscape:export-ydpi="598.79999"
           inkscape:export-xdpi="598.79999"
           inkscape:export-filename="D:\Dropbox\PiSiLinux\logo\g4295-7-3.png"
           style="fill:#1f549e;fill-opacity:1"
           transform="translate(-30.549898,-35.03055)"
           id="g342497" />
        <g
           id="g73489">
          <g
             id="g105563"
             style="stroke-width:1.00028;stroke-miterlimit:4;stroke-dasharray:none"
             transform="translate(-5.1386306,155.99229)">
            <rect
               style="fill:url(#radialGradient1009);stroke:none;stroke-width:1.51986;stroke-linecap:square;stroke-linejoin:round;fill-opacity:1"
               id="rect1024"
               width="829.68787"
               height="460.58627"
               x="-41.114105"
               y="662.71533" />
            <g
               id="g1143"
               transform="matrix(0.3508973,0,0,0.346301,305.70755,833.92399)"
               style="mix-blend-mode:normal;stroke-width:2.86949;stroke-miterlimit:4;stroke-dasharray:none;filter:url(#filter130175)">
              <g
                 id="g1083"
                 transform="matrix(0.7936967,0,0,0.7936967,363.80533,-3.536509)"
                 style="stroke-width:3.61534;stroke-miterlimit:4;stroke-dasharray:none">
                <path
                   style="fill:#ee3e82;fill-opacity:1;stroke:none;stroke-width:3.61534;stroke-linecap:square;stroke-linejoin:round;stroke-miterlimit:4;stroke-dasharray:none;stroke-opacity:0.416882"
                   d="m -262.64113,144.78133 c -13.23211,32.97355 -27.56683,70.98782 -30.36453,100.14062 15.45317,-16.77259 31.46945,-32.43799 50.46515,-42.24504 -16.42236,33.16651 -33.68845,70.41443 -37.93954,97.50346 32.1035,-54.92806 67.84935,-106.27284 120.17928,-140.01259 -17.5374,-0.7295 -34.64363,-0.59436 -52.93418,7.89637 2.83254,-9.94884 6.77736,-19.44332 13.54545,-27.7845 z"
                   id="path1045"
                   sodipodi:nodetypes="cccccccc" />
                <path
                   id="path1047"
                   style="fill:#101714;fill-opacity:1;stroke:none;stroke-width:3.61534;stroke-linecap:square;stroke-linejoin:round;stroke-miterlimit:4;stroke-dasharray:none;stroke-opacity:0.416882"
                   d="m -203.67891,140.56451 -58.96289,4.21679 c -13.23212,32.97356 -27.56558,70.98783 -30.36328,100.14063 15.45317,-16.77259 31.46913,-32.43709 50.46484,-42.24414 -15.40565,31.11315 -31.55407,65.81668 -37.00391,92.35742 l 1.73047,0.63476 c 12.21866,-20.69137 25.0243,-40.79925 39.08594,-59.59765 z" />
                <path
                   style="fill:#ed1d47;fill-opacity:1;stroke:none;stroke-width:3.61534;stroke-linecap:square;stroke-linejoin:round;stroke-miterlimit:4;stroke-dasharray:none;stroke-opacity:0.416882"
                   d="m -262.64113,144.78133 c -13.23211,32.97355 -27.56683,70.98782 -30.36453,100.14062 15.45317,-16.77259 31.46945,-32.43799 50.46515,-42.24504 -16.42236,33.16651 -33.68845,70.41443 -37.93954,97.50346 32.1035,-54.92806 67.84935,-106.27284 120.17928,-140.01259 -17.5374,-0.7295 -34.64363,-0.59436 -52.93418,7.89637 2.83254,-9.94884 6.77736,-19.44332 13.54545,-27.7845 z"
                   id="path1049"
                   sodipodi:nodetypes="cccccccc" />
                <path
                   id="path1051"
                   style="fill:#ee3e82;fill-opacity:1;stroke-width:2.86949;stroke-linecap:square;stroke-linejoin:round;stroke-miterlimit:4;stroke-dasharray:none;stroke-opacity:0.416882"
                   d="m 190.43164,163.93555 c 9.90975,-11.21843 20.64967,-21.56401 32.52148,-30.71094 l 3.61329,-9.8457 c -7.38022,0.0511 -14.7521,0.71013 -22.3086,2.86914 z"
                   transform="matrix(1.2599271,0,0,1.2599271,-458.3682,4.4557436)" />
                <path
                   id="path1053"
                   style="fill:#ee3e82;fill-opacity:1;stroke-width:2.86949;stroke-linecap:square;stroke-linejoin:round;stroke-miterlimit:4;stroke-dasharray:none;stroke-opacity:0.416882"
                   d="m 164.77734,233.85547 -1.80468,4.91992 13.56054,-10.68555 c 0.56085,-0.44181 0.72339,-1.35122 0.35742,-2.03906 -0.36761,-0.67571 -1.11322,-0.86649 -1.67578,-0.41601 z"
                   transform="matrix(1.2599271,0,0,1.2599271,-458.3682,4.4557436)" />
                <path
                   id="path1055"
                   style="fill:#ed1d47;fill-opacity:1;stroke-width:2.86949;stroke-linecap:square;stroke-linejoin:round;stroke-miterlimit:4;stroke-dasharray:none;stroke-opacity:0.416882"
                   d="m 158.00391,252.31836 1.49218,-4.06641 c -1.79957,-0.79736 -3.57274,-1.64456 -5.31054,-2.55273 l 8.78711,-6.92383 1.80468,-4.91992 -13.21679,10.41015 c -1.59818,-0.90285 -3.16889,-1.84901 -4.70703,-2.84374 l 18.78125,-14.79297 c 0.56255,-0.44355 0.72334,-1.35664 0.35742,-2.04102 -0.3625,-0.67744 -1.11274,-0.86955 -1.67188,-0.42773 l -19.88086,15.66015 c -4.96932,-3.4396 -9.572,-7.37746 -13.77929,-11.71484 l -1.64063,4.47265 c 3.68843,3.65202 7.65518,7.014 11.88477,10.02735 l -21.89063,17.24219 -1.80664,4.92578 26.07031,-20.53516 c 1.51212,1.0109 3.04569,1.99068 4.61524,2.91602 l -21.10938,16.625 c -0.56255,0.43834 -0.71943,1.34882 -0.35351,2.0332 0.36079,0.68438 1.11469,0.8778 1.67383,0.43945 l 22.38086,-17.63476 c 2.44433,1.34085 4.95505,2.57323 7.51953,3.70117 z"
                   transform="matrix(1.2599271,0,0,1.2599271,-458.3682,4.4557436)" />
                <path
                   id="path1057"
                   style="fill:#ee3e82;fill-opacity:1;stroke-width:2.86949;stroke-linecap:square;stroke-linejoin:round;stroke-miterlimit:4;stroke-dasharray:none;stroke-opacity:0.416882"
                   d="m 232.46875,110.25781 3.83984,-10.468748 c -1.70739,1.373958 -3.31543,2.783358 -4.80273,4.222658 -5.0576,-3.69617 -10.34194,-6.731702 -15.81445,-8.929689 l -1.51172,4.121094 c 6.32172,2.555645 12.44465,6.353035 18.28906,11.054685 z"
                   transform="matrix(1.2599271,0,0,1.2599271,-458.3682,4.4557436)" />
                <path
                   id="path1059"
                   style="fill:#ee3e82;fill-opacity:1;stroke-width:2.86949;stroke-linecap:square;stroke-linejoin:round;stroke-miterlimit:4;stroke-dasharray:none;stroke-opacity:0.416882"
                   d="m 178.04492,258.59375 1.50781,-4.11133 c -6.99354,-1.30829 -13.71049,-3.41859 -20.05664,-6.23047 l -1.49218,4.06641 c 6.357,2.79602 13.06724,4.91383 20.04101,6.27539 z"
                   transform="matrix(1.2599271,0,0,1.2599271,-458.3682,4.4557436)" />
                <path
                   id="path1061"
                   style="fill:#ed1d47;fill-opacity:1;stroke-width:2.86949;stroke-linecap:square;stroke-linejoin:round;stroke-miterlimit:4;stroke-dasharray:none;stroke-opacity:0.416882"
                   d="m 236.83398,113.99219 7.19727,-19.619143 c -2.79955,1.707432 -5.37072,3.523389 -7.72266,5.416015 l -3.83984,10.468748 c 1.47428,1.18602 2.928,2.43773 4.36523,3.73438 z"
                   transform="matrix(1.2599271,0,0,1.2599271,-458.3682,4.4557436)" />
                <path
                   id="path1063"
                   style="fill:#ed1d47;fill-opacity:1;stroke-width:2.86949;stroke-linecap:square;stroke-linejoin:round;stroke-miterlimit:4;stroke-dasharray:none;stroke-opacity:0.416882"
                   d="m 183.45703,259.47266 1.5293,-4.16602 c -1.82621,-0.22818 -3.64212,-0.48908 -5.4336,-0.82422 l -1.50781,4.11133 c 1.78549,0.3486 3.59349,0.63103 5.41211,0.87891 z"
                   transform="matrix(1.2599271,0,0,1.2599271,-458.3682,4.4557436)" />
                <path
                   id="path1065"
                   style="fill:#276aff;fill-opacity:1;stroke-width:2.86949;stroke-linecap:square;stroke-linejoin:round;stroke-miterlimit:4;stroke-dasharray:none;stroke-opacity:0.416882"
                   d="m 249.39453,251.55273 -0.99805,2.71875 15.20313,11.98047 c 0.55914,0.43835 1.30278,0.23973 1.67383,-0.43945 0.3625,-0.68438 0.20025,-1.59486 -0.35547,-2.0332 z"
                   transform="matrix(1.2599271,0,0,1.2599271,-458.3682,4.4557436)" />
                <path
                   id="path1067"
                   style="fill:#276aff;fill-opacity:1;stroke-width:2.86949;stroke-linecap:square;stroke-linejoin:round;stroke-miterlimit:4;stroke-dasharray:none;stroke-opacity:0.416882"
                   d="m 252.25586,243.75195 -0.99805,2.71875 23.23828,18.30274 c 0.56256,0.44354 1.31304,0.25339 1.67383,-0.42578 0.36421,-0.68958 0.20562,-1.59206 -0.35351,-2.03907 z"
                   transform="matrix(1.2599271,0,0,1.2599271,-458.3682,4.4557436)" />
                <path
                   id="path1069"
                   style="fill:#ed1d47;fill-opacity:1;stroke-width:2.86949;stroke-linecap:square;stroke-linejoin:round;stroke-miterlimit:4;stroke-dasharray:none;stroke-opacity:0.416882"
                   d="m 253.03125,241.64062 2.86523,-7.8125 c -2.61908,2.25332 -5.35217,4.37424 -8.20898,6.32422 l -20.30273,-15.99218 c -0.55401,-0.44182 -1.30425,-0.24971 -1.67188,0.42773 -0.36763,0.68438 -0.20343,1.59747 0.35742,2.04102 l 19.20117,15.125 c -1.54984,0.98798 -3.13817,1.91738 -4.74804,2.8125 l -24.03516,-18.93164 c -0.55401,-0.45048 -1.3062,-0.25992 -1.67383,0.41406 -0.36763,0.68784 -0.20347,1.59725 0.35743,2.03906 l 22.70703,17.89453 c -12.49086,6.41824 -26.60595,10.04883 -41.57032,10.04883 -3.83662,0 -7.61062,-0.26085 -11.32226,-0.72461 l -1.5293,4.16602 c 4.20578,0.57323 8.49142,0.88867 12.85156,0.88867 16.36579,0 31.78028,-4.14267 45.29493,-11.44336 l 6.79296,5.35351 0.99805,-2.71875 -5.19141,-4.08789 c 1.57935,-0.9175 3.12454,-1.88877 4.64649,-2.89257 l 2.4082,1.89843 0.99805,-2.71875 -1.01367,-0.79883 c 0.60513,-0.42554 1.19403,-0.8734 1.78906,-1.3125 z"
                   transform="matrix(1.2599271,0,0,1.2599271,-458.3682,4.4557436)" />
                <path
                   id="path1071"
                   style="fill:#276aff;fill-opacity:1;stroke-width:2.86949;stroke-linecap:square;stroke-linejoin:round;stroke-miterlimit:4;stroke-dasharray:none;stroke-opacity:0.416882"
                   d="m 279.86133,168.50977 -2.125,5.79101 c 2.54679,5.88965 4.70859,11.61325 6.4082,16.94336 -5.39651,16.76631 -15.30247,31.44632 -28.24805,42.58398 l -2.86523,7.8125 c 16.50835,-12.18194 29.10099,-29.51904 35.43945,-49.70898 l 0.20703,-0.65625 -0.20703,-0.65625 c -2.16493,-6.89812 -5.07589,-14.40973 -8.60937,-22.10937 z"
                   transform="matrix(1.2599271,0,0,1.2599271,-458.3682,4.4557436)" />
                <path
                   id="path1073"
                   style="fill:#ed1d47;fill-opacity:1;stroke-width:2.86949;stroke-linecap:square;stroke-linejoin:round;stroke-miterlimit:4;stroke-dasharray:none;stroke-opacity:0.416882"
                   d="m 279.45898,82.421875 -1.91015,0.289063 c -13.81087,2.091588 -24.79351,6.341331 -33.51758,11.662109 l -7.19727,19.619143 c 4.96214,4.47674 9.69738,9.57646 14.13868,15.11914 11.04512,13.7842 20.21878,30.05389 26.76367,45.18945 l 2.125,-5.79101 c -1.22551,-2.67046 -2.52353,-5.36205 -3.89453,-8.06055 8.27257,-13.98656 9.12969,-32.87861 8.09375,-48.3418 C 283.0171,96.531982 279.9375,84.318359 279.9375,84.318359 Z"
                   transform="matrix(1.2599271,0,0,1.2599271,-458.3682,4.4557436)" />
                <path
                   id="path1075"
                   style="fill:#101714;fill-opacity:1;stroke:none;stroke-width:2.86949;stroke-linecap:square;stroke-linejoin:round;stroke-miterlimit:4;stroke-dasharray:none;stroke-opacity:0.416882"
                   d="m 179.86328,93.996094 c -5.74064,1.963239 -11.28575,4.870478 -16.59375,8.509766 -0.15466,0.10604 -0.31015,0.21222 -0.46484,0.31836 l -1.12891,2.98633 c -2.16909,1.61203 -4.29187,3.41216 -6.32812,5.56445 -10.50229,26.17101 -21.87909,56.34394 -24.09961,79.48242 6.31259,-6.85158 12.75165,-13.45622 19.5625,-19.32812 l 26.53906,-71.912112 c 0.17851,-0.07661 0.35632,-0.15583 0.53516,-0.230469 z m -58.55273,122.873046 -1.7793,4.85156 c 2.90071,3.85284 6.07588,7.47873 9.48828,10.85742 l 1.64063,-4.47265 c -3.3886,-3.49337 -6.5263,-7.24057 -9.34961,-11.23633 z"
                   transform="matrix(1.2599271,0,0,1.2599271,-458.3682,4.4557436)" />
                <path
                   id="path1077"
                   style="fill:#104b93;fill-opacity:1;stroke:none;stroke-width:2.86949;stroke-linecap:square;stroke-linejoin:round;stroke-miterlimit:4;stroke-dasharray:none;stroke-opacity:0.416882"
                   d="m 117.08398,210.33789 -1.89843,5.17383 c 1.36431,2.13326 2.82831,4.19352 4.3457,6.20898 l 1.7793,-4.85156 c -1.49362,-2.11387 -2.90487,-4.29186 -4.22657,-6.53125 z"
                   transform="matrix(1.2599271,0,0,1.2599271,-458.3682,4.4557436)" />
                <path
                   id="path1079"
                   style="fill:#104b93;fill-opacity:1;stroke:none;stroke-width:2.86949;stroke-linecap:square;stroke-linejoin:round;stroke-miterlimit:4;stroke-dasharray:none;stroke-opacity:0.416882"
                   d="m 157.69727,99.642578 -7.08399,19.308592 c 0.93766,-0.96167 1.88685,-1.89862 2.84375,-2.81445 -9.09627,22.9011 -18.37904,48.23391 -21.49023,69.05273 10.22375,-27.47542 20.48394,-54.97556 30.83789,-82.36523 -0.27577,0.18921 -0.55051,0.37915 -0.82422,0.57422 -1.33882,-1.27737 -2.77042,-2.53008 -4.2832,-3.755862 z"
                   transform="matrix(1.2599271,0,0,1.2599271,-458.3682,4.4557436)"
                   sodipodi:nodetypes="ccccccc" />
                <path
                   id="path1081"
                   style="fill:#ed1d47;fill-opacity:1;stroke-width:2.86949;stroke-linecap:square;stroke-linejoin:round;stroke-miterlimit:4;stroke-dasharray:none;stroke-opacity:0.416882"
                   d="m 190.43164,163.93555 13.82617,-37.6875 c -3.1946,0.91274 -6.42191,2.08695 -9.69726,3.60742 2.24817,-7.89637 5.38014,-15.43237 10.75195,-22.05274 l 7.81055,-9.033199 c 0.35388,0.134843 0.70395,0.291017 1.05664,0.433594 l 1.51172,-4.121094 c -6.23163,-2.502876 -12.70791,-3.916015 -19.38282,-3.916015 -5.63318,0 -11.12311,1.009942 -16.44531,2.830078 l -0.58144,0.17377 c -9.63611,25.730236 -19.0041,51.565356 -28.47129,77.359436 l 5.68164,-4.65039 c 4.70959,-3.6295 9.61836,-6.87019 14.81054,-9.55079 -13.03437,26.32415 -26.7392,55.88625 -30.11328,77.38672 14.7723,-25.27491 30.52254,-49.58753 49.24219,-70.77929 z"
                   transform="matrix(1.2599271,0,0,1.2599271,-458.3682,4.4557436)"
                   sodipodi:nodetypes="cccccccsccccccc" />
              </g>
              <g
                 id="g1141"
                 transform="matrix(1.709902,0,0,1.7325968,79.788353,-1421.9892)"
                 style="stroke-width:1.66713;stroke-miterlimit:4;stroke-dasharray:none">
                <path
                   id="path1085"
                   style="color:#000000;fill:#101714;fill-opacity:1;stroke-width:2.86949;stroke-miterlimit:4;stroke-dasharray:none"
                   d="m 117.20703,264.77344 1.80664,-4.92578 -3.12305,2.46093 c -0.56084,0.44701 -0.72309,1.34949 -0.35546,2.03907 0.36421,0.67917 1.11102,0.86932 1.67187,0.42578 z"
                   transform="matrix(0.58482884,0,0,0.57716833,-46.66253,820.72713)" />
                <path
                   id="path1087"
                   style="color:#000000;fill:#3261ad;fill-opacity:1;stroke-width:2.86949;stroke-miterlimit:4;stroke-dasharray:none"
                   d="m 114.41797,82.134766 -0.47852,1.892578 c 0,0 -3.06281,12.083319 -4.13672,27.537106 -1.0531,15.15452 -0.30325,33.65792 7.48243,47.6211 -5.62876,10.90634 -10.09148,21.76868 -13.12305,31.43359 l -0.20899,0.65625 0.20899,0.65625 c 2.63995,8.41413 6.38141,16.32175 11.02344,23.58008 l 1.89843,-5.17383 c -3.52365,-5.97022 -6.43142,-12.35964 -8.59765,-19.09375 6.06402,-19.02743 17.82745,-42.98479 33.16992,-62.13281 2.87052,-3.58253 5.862,-6.98585 8.95703,-10.16016 l 7.08399,-19.308592 C 148.01124,91.794179 134.66473,85.19921 116.32422,82.421875 Z"
                   transform="matrix(0.58482884,0,0,0.57716833,-46.66253,820.72713)" />
                <g
                   inkscape:export-ydpi="598.79999"
                   inkscape:export-xdpi="598.79999"
                   inkscape:export-filename="D:\Dropbox\PiSiLinux\logo\g4295-7-3.png"
                   transform="translate(4.4166628,858.48748)"
                   id="g1095"
                   style="fill:#0f4b93;fill-opacity:1;stroke-width:1.66713;stroke-miterlimit:4;stroke-dasharray:none">
                  <path
                     id="path1089"
                     style="fill:#3261ad;fill-opacity:1;stroke-width:2.86949;stroke-miterlimit:4;stroke-dasharray:none"
                     d="m 192.29102,218.22266 c -4.16608,0.31355 -8.10895,1.05296 -11.69532,2.14648 0.22742,0.47127 0.53737,0.96718 0.96485,1.47656 l 6.50586,7.89258 z"
                     transform="matrix(0.58482884,0,0,0.57716833,-51.079193,-37.760349)" />
                  <path
                     id="path1091"
                     style="fill:#0f4b93;fill-opacity:1;stroke-width:2.86949;stroke-miterlimit:4;stroke-dasharray:none"
                     d="m 197.98438,218.07227 c -0.40067,-0.008 -0.79914,-0.0215 -1.20313,-0.0215 -1.52113,0 -3.0192,0.0612 -4.49023,0.17188 l -4.22461,11.51562 3.90039,4.73242 z"
                     transform="matrix(0.58482884,0,0,0.57716833,-51.079193,-37.760349)" />
                  <path
                     id="path1093"
                     style="fill:#ed1d47;fill-opacity:1;stroke-width:2.86949;stroke-miterlimit:4;stroke-dasharray:none"
                     d="m 197.98438,218.07227 -6.01758,16.39843 0.4414,0.53516 c 0.98523,1.19242 2.22784,1.89567 3.51563,2.10937 V 245.5 h 1.71094 v -8.38672 c 1.28186,-0.21676 2.51692,-0.9198 3.49609,-2.10742 l 10.86133,-13.16016 c 0.42063,-0.51631 0.74841,-1.00356 0.9707,-1.47656 -4.52274,-1.37709 -9.59813,-2.18956 -14.97851,-2.29687 z"
                     transform="matrix(0.58482884,0,0,0.57716833,-51.079193,-37.760349)" />
                </g>
                <g
                   id="g1099"
                   style="fill:#ed1d47;fill-opacity:1;stroke-width:1.66713;stroke-miterlimit:4;stroke-dasharray:none">
                  <path
                     style="color:#000000;fill:#ed1d47;fill-opacity:1;stroke-width:1.66713;stroke-miterlimit:4;stroke-dasharray:none"
                     d="m 68.419678,954.2561 v 8.16504"
                     id="path1097" />
                </g>
                <g
                   inkscape:export-ydpi="598.79999"
                   inkscape:export-xdpi="598.79999"
                   inkscape:export-filename="D:\Dropbox\PiSiLinux\logo\g4295-7-3.png"
                   transform="translate(3.8787028,858.0599)"
                   id="g1137"
                   style="fill:#000000;stroke-width:1.66713;stroke-miterlimit:4;stroke-dasharray:none">
                  <g
                     id="g1117"
                     style="fill:#000000;stroke-width:1.66713;stroke-miterlimit:4;stroke-dasharray:none">
                    <g
                       id="g1107"
                       style="fill:#000000;stroke-width:1.66713;stroke-miterlimit:4;stroke-dasharray:none">
                      <linearGradient
                         y2="103.7656"
                         x2="46.650902"
                         y1="103.7656"
                         x1="16.9111"
                         gradientUnits="userSpaceOnUse"
                         id="linearGradient1105">
                        <stop
                           id="stop1101"
                           style="stop-color:#EC008C"
                           offset="0" />
                        <stop
                           id="stop1103"
                           style="stop-color:#C4008C"
                           offset="1" />
                      </linearGradient>
                    </g>
                    <g
                       id="g1115"
                       style="fill:#000000;stroke-width:1.66713;stroke-miterlimit:4;stroke-dasharray:none">
                      <linearGradient
                         y2="104.6143"
                         x2="53.023399"
                         y1="104.6143"
                         x1="23.283199"
                         gradientUnits="userSpaceOnUse"
                         id="linearGradient1113">
                        <stop
                           id="stop1109"
                           style="stop-color:#EC008C"
                           offset="0" />
                        <stop
                           id="stop1111"
                           style="stop-color:#C4008C"
                           offset="1" />
                      </linearGradient>
                    </g>
                  </g>
                  <g
                     id="g1135"
                     style="fill:#000000;stroke-width:1.66713;stroke-miterlimit:4;stroke-dasharray:none">
                    <g
                       id="g1125"
                       style="fill:#000000;stroke-width:1.66713;stroke-miterlimit:4;stroke-dasharray:none">
                      <linearGradient
                         y2="103.7656"
                         x2="111.0859"
                         y1="103.7656"
                         x1="81.346703"
                         gradientUnits="userSpaceOnUse"
                         id="linearGradient1123">
                        <stop
                           id="stop1119"
                           style="stop-color:#EC008C"
                           offset="0" />
                        <stop
                           id="stop1121"
                           style="stop-color:#C4008C"
                           offset="1" />
                      </linearGradient>
                    </g>
                    <g
                       id="g1133"
                       style="fill:#000000;stroke-width:1.66713;stroke-miterlimit:4;stroke-dasharray:none">
                      <linearGradient
                         y2="104.6133"
                         x2="104.7119"
                         y1="104.6133"
                         x1="74.973602"
                         gradientUnits="userSpaceOnUse"
                         id="linearGradient1131">
                        <stop
                           id="stop1127"
                           style="stop-color:#EC008C"
                           offset="0" />
                        <stop
                           id="stop1129"
                           style="stop-color:#C4008C"
                           offset="1" />
                      </linearGradient>
                    </g>
                  </g>
                </g>
                <g
                   inkscape:export-ydpi="598.79999"
                   inkscape:export-xdpi="598.79999"
                   inkscape:export-filename="D:\Dropbox\PiSiLinux\logo\g4295-7-3.png"
                   style="fill:#000000;stroke-width:1.66713;stroke-miterlimit:4;stroke-dasharray:none"
                   transform="translate(-30.549898,-35.03055)"
                   id="g1139" />
              </g>
            </g>
            <g
               id="g125336"
               transform="matrix(0.3508973,0,0,0.346301,303.5469,831.79164)"
               style="fill:#ffffff;fill-opacity:1;stroke-width:2.86949;stroke-miterlimit:4;stroke-dasharray:none">
              <g
                 id="g125276"
                 transform="matrix(0.7936967,0,0,0.7936967,363.80533,-3.536509)"
                 style="fill:#ffffff;fill-opacity:1;stroke-width:3.61534;stroke-miterlimit:4;stroke-dasharray:none">
                <path
                   style="fill:#ffffff;fill-opacity:1;stroke:none;stroke-width:3.61534;stroke-linecap:square;stroke-linejoin:round;stroke-miterlimit:4;stroke-dasharray:none;stroke-opacity:0.416882"
                   d="m -262.64113,144.78133 c -13.23211,32.97355 -27.56683,70.98782 -30.36453,100.14062 15.45317,-16.77259 31.46945,-32.43799 50.46515,-42.24504 -16.42236,33.16651 -33.68845,70.41443 -37.93954,97.50346 32.1035,-54.92806 67.84935,-106.27284 120.17928,-140.01259 -17.5374,-0.7295 -34.64363,-0.59436 -52.93418,7.89637 2.83254,-9.94884 6.77736,-19.44332 13.54545,-27.7845 z"
                   id="path125238"
                   sodipodi:nodetypes="cccccccc" />
                <path
                   id="path125240"
                   style="fill:#ffffff;fill-opacity:1;stroke:none;stroke-width:3.61534;stroke-linecap:square;stroke-linejoin:round;stroke-miterlimit:4;stroke-dasharray:none;stroke-opacity:0.416882"
                   d="m -203.67891,140.56451 -58.96289,4.21679 c -13.23212,32.97356 -27.56558,70.98783 -30.36328,100.14063 15.45317,-16.77259 31.46913,-32.43709 50.46484,-42.24414 -15.40565,31.11315 -31.55407,65.81668 -37.00391,92.35742 l 1.73047,0.63476 c 12.21866,-20.69137 25.0243,-40.79925 39.08594,-59.59765 z" />
                <path
                   style="fill:#ffffff;fill-opacity:1;stroke:none;stroke-width:3.61534;stroke-linecap:square;stroke-linejoin:round;stroke-miterlimit:4;stroke-dasharray:none;stroke-opacity:0.416882"
                   d="m -262.64113,144.78133 c -13.23211,32.97355 -27.56683,70.98782 -30.36453,100.14062 15.45317,-16.77259 31.46945,-32.43799 50.46515,-42.24504 -16.42236,33.16651 -33.68845,70.41443 -37.93954,97.50346 32.1035,-54.92806 67.84935,-106.27284 120.17928,-140.01259 -17.5374,-0.7295 -34.64363,-0.59436 -52.93418,7.89637 2.83254,-9.94884 6.77736,-19.44332 13.54545,-27.7845 z"
                   id="path125242"
                   sodipodi:nodetypes="cccccccc" />
                <path
                   id="path125244"
                   style="fill:#ffffff;fill-opacity:1;stroke-width:2.86949;stroke-linecap:square;stroke-linejoin:round;stroke-miterlimit:4;stroke-dasharray:none;stroke-opacity:0.416882"
                   d="m 190.43164,163.93555 c 9.90975,-11.21843 20.64967,-21.56401 32.52148,-30.71094 l 3.61329,-9.8457 c -7.38022,0.0511 -14.7521,0.71013 -22.3086,2.86914 z"
                   transform="matrix(1.2599271,0,0,1.2599271,-458.3682,4.4557436)" />
                <path
                   id="path125246"
                   style="fill:#ffffff;fill-opacity:1;stroke-width:2.86949;stroke-linecap:square;stroke-linejoin:round;stroke-miterlimit:4;stroke-dasharray:none;stroke-opacity:0.416882"
                   d="m 164.77734,233.85547 -1.80468,4.91992 13.56054,-10.68555 c 0.56085,-0.44181 0.72339,-1.35122 0.35742,-2.03906 -0.36761,-0.67571 -1.11322,-0.86649 -1.67578,-0.41601 z"
                   transform="matrix(1.2599271,0,0,1.2599271,-458.3682,4.4557436)" />
                <path
                   id="path125248"
                   style="fill:#ffffff;fill-opacity:1;stroke-width:2.86949;stroke-linecap:square;stroke-linejoin:round;stroke-miterlimit:4;stroke-dasharray:none;stroke-opacity:0.416882"
                   d="m 158.00391,252.31836 1.49218,-4.06641 c -1.79957,-0.79736 -3.57274,-1.64456 -5.31054,-2.55273 l 8.78711,-6.92383 1.80468,-4.91992 -13.21679,10.41015 c -1.59818,-0.90285 -3.16889,-1.84901 -4.70703,-2.84374 l 18.78125,-14.79297 c 0.56255,-0.44355 0.72334,-1.35664 0.35742,-2.04102 -0.3625,-0.67744 -1.11274,-0.86955 -1.67188,-0.42773 l -19.88086,15.66015 c -4.96932,-3.4396 -9.572,-7.37746 -13.77929,-11.71484 l -1.64063,4.47265 c 3.68843,3.65202 7.65518,7.014 11.88477,10.02735 l -21.89063,17.24219 -1.80664,4.92578 26.07031,-20.53516 c 1.51212,1.0109 3.04569,1.99068 4.61524,2.91602 l -21.10938,16.625 c -0.56255,0.43834 -0.71943,1.34882 -0.35351,2.0332 0.36079,0.68438 1.11469,0.8778 1.67383,0.43945 l 22.38086,-17.63476 c 2.44433,1.34085 4.95505,2.57323 7.51953,3.70117 z"
                   transform="matrix(1.2599271,0,0,1.2599271,-458.3682,4.4557436)" />
                <path
                   id="path125250"
                   style="fill:#ffffff;fill-opacity:1;stroke-width:2.86949;stroke-linecap:square;stroke-linejoin:round;stroke-miterlimit:4;stroke-dasharray:none;stroke-opacity:0.416882"
                   d="m 232.46875,110.25781 3.83984,-10.468748 c -1.70739,1.373958 -3.31543,2.783358 -4.80273,4.222658 -5.0576,-3.69617 -10.34194,-6.731702 -15.81445,-8.929689 l -1.51172,4.121094 c 6.32172,2.555645 12.44465,6.353035 18.28906,11.054685 z"
                   transform="matrix(1.2599271,0,0,1.2599271,-458.3682,4.4557436)" />
                <path
                   id="path125252"
                   style="fill:#ffffff;fill-opacity:1;stroke-width:2.86949;stroke-linecap:square;stroke-linejoin:round;stroke-miterlimit:4;stroke-dasharray:none;stroke-opacity:0.416882"
                   d="m 178.04492,258.59375 1.50781,-4.11133 c -6.99354,-1.30829 -13.71049,-3.41859 -20.05664,-6.23047 l -1.49218,4.06641 c 6.357,2.79602 13.06724,4.91383 20.04101,6.27539 z"
                   transform="matrix(1.2599271,0,0,1.2599271,-458.3682,4.4557436)" />
                <path
                   id="path125254"
                   style="fill:#ffffff;fill-opacity:1;stroke-width:2.86949;stroke-linecap:square;stroke-linejoin:round;stroke-miterlimit:4;stroke-dasharray:none;stroke-opacity:0.416882"
                   d="m 236.83398,113.99219 7.19727,-19.619143 c -2.79955,1.707432 -5.37072,3.523389 -7.72266,5.416015 l -3.83984,10.468748 c 1.47428,1.18602 2.928,2.43773 4.36523,3.73438 z"
                   transform="matrix(1.2599271,0,0,1.2599271,-458.3682,4.4557436)" />
                <path
                   id="path125256"
                   style="fill:#ffffff;fill-opacity:1;stroke-width:2.86949;stroke-linecap:square;stroke-linejoin:round;stroke-miterlimit:4;stroke-dasharray:none;stroke-opacity:0.416882"
                   d="m 183.45703,259.47266 1.5293,-4.16602 c -1.82621,-0.22818 -3.64212,-0.48908 -5.4336,-0.82422 l -1.50781,4.11133 c 1.78549,0.3486 3.59349,0.63103 5.41211,0.87891 z"
                   transform="matrix(1.2599271,0,0,1.2599271,-458.3682,4.4557436)" />
                <path
                   id="path125258"
                   style="fill:#ffffff;fill-opacity:1;stroke-width:2.86949;stroke-linecap:square;stroke-linejoin:round;stroke-miterlimit:4;stroke-dasharray:none;stroke-opacity:0.416882"
                   d="m 249.39453,251.55273 -0.99805,2.71875 15.20313,11.98047 c 0.55914,0.43835 1.30278,0.23973 1.67383,-0.43945 0.3625,-0.68438 0.20025,-1.59486 -0.35547,-2.0332 z"
                   transform="matrix(1.2599271,0,0,1.2599271,-458.3682,4.4557436)" />
                <path
                   id="path125260"
                   style="fill:#ffffff;fill-opacity:1;stroke-width:2.86949;stroke-linecap:square;stroke-linejoin:round;stroke-miterlimit:4;stroke-dasharray:none;stroke-opacity:0.416882"
                   d="m 252.25586,243.75195 -0.99805,2.71875 23.23828,18.30274 c 0.56256,0.44354 1.31304,0.25339 1.67383,-0.42578 0.36421,-0.68958 0.20562,-1.59206 -0.35351,-2.03907 z"
                   transform="matrix(1.2599271,0,0,1.2599271,-458.3682,4.4557436)" />
                <path
                   id="path125262"
                   style="fill:#ffffff;fill-opacity:1;stroke-width:2.86949;stroke-linecap:square;stroke-linejoin:round;stroke-miterlimit:4;stroke-dasharray:none;stroke-opacity:0.416882"
                   d="m 253.03125,241.64062 2.86523,-7.8125 c -2.61908,2.25332 -5.35217,4.37424 -8.20898,6.32422 l -20.30273,-15.99218 c -0.55401,-0.44182 -1.30425,-0.24971 -1.67188,0.42773 -0.36763,0.68438 -0.20343,1.59747 0.35742,2.04102 l 19.20117,15.125 c -1.54984,0.98798 -3.13817,1.91738 -4.74804,2.8125 l -24.03516,-18.93164 c -0.55401,-0.45048 -1.3062,-0.25992 -1.67383,0.41406 -0.36763,0.68784 -0.20347,1.59725 0.35743,2.03906 l 22.70703,17.89453 c -12.49086,6.41824 -26.60595,10.04883 -41.57032,10.04883 -3.83662,0 -7.61062,-0.26085 -11.32226,-0.72461 l -1.5293,4.16602 c 4.20578,0.57323 8.49142,0.88867 12.85156,0.88867 16.36579,0 31.78028,-4.14267 45.29493,-11.44336 l 6.79296,5.35351 0.99805,-2.71875 -5.19141,-4.08789 c 1.57935,-0.9175 3.12454,-1.88877 4.64649,-2.89257 l 2.4082,1.89843 0.99805,-2.71875 -1.01367,-0.79883 c 0.60513,-0.42554 1.19403,-0.8734 1.78906,-1.3125 z"
                   transform="matrix(1.2599271,0,0,1.2599271,-458.3682,4.4557436)" />
                <path
                   id="path125264"
                   style="fill:#ffffff;fill-opacity:1;stroke-width:2.86949;stroke-linecap:square;stroke-linejoin:round;stroke-miterlimit:4;stroke-dasharray:none;stroke-opacity:0.416882"
                   d="m 279.86133,168.50977 -2.125,5.79101 c 2.54679,5.88965 4.70859,11.61325 6.4082,16.94336 -5.39651,16.76631 -15.30247,31.44632 -28.24805,42.58398 l -2.86523,7.8125 c 16.50835,-12.18194 29.10099,-29.51904 35.43945,-49.70898 l 0.20703,-0.65625 -0.20703,-0.65625 c -2.16493,-6.89812 -5.07589,-14.40973 -8.60937,-22.10937 z"
                   transform="matrix(1.2599271,0,0,1.2599271,-458.3682,4.4557436)" />
                <path
                   id="path125266"
                   style="fill:#ffffff;fill-opacity:1;stroke-width:2.86949;stroke-linecap:square;stroke-linejoin:round;stroke-miterlimit:4;stroke-dasharray:none;stroke-opacity:0.416882"
                   d="m 279.45898,82.421875 -1.91015,0.289063 c -13.81087,2.091588 -24.79351,6.341331 -33.51758,11.662109 l -7.19727,19.619143 c 4.96214,4.47674 9.69738,9.57646 14.13868,15.11914 11.04512,13.7842 20.21878,30.05389 26.76367,45.18945 l 2.125,-5.79101 c -1.22551,-2.67046 -2.52353,-5.36205 -3.89453,-8.06055 8.27257,-13.98656 9.12969,-32.87861 8.09375,-48.3418 C 283.0171,96.531982 279.9375,84.318359 279.9375,84.318359 Z"
                   transform="matrix(1.2599271,0,0,1.2599271,-458.3682,4.4557436)" />
                <path
                   id="path125268"
                   style="fill:#ffffff;fill-opacity:1;stroke:none;stroke-width:2.86949;stroke-linecap:square;stroke-linejoin:round;stroke-miterlimit:4;stroke-dasharray:none;stroke-opacity:0.416882"
                   d="m 179.86328,93.996094 c -5.74064,1.963239 -11.28575,4.870478 -16.59375,8.509766 -0.15466,0.10604 -0.31015,0.21222 -0.46484,0.31836 l -1.12891,2.98633 c -2.16909,1.61203 -4.29187,3.41216 -6.32812,5.56445 -10.50229,26.17101 -21.87909,56.34394 -24.09961,79.48242 6.31259,-6.85158 12.75165,-13.45622 19.5625,-19.32812 l 26.53906,-71.912112 c 0.17851,-0.07661 0.35632,-0.15583 0.53516,-0.230469 z m -58.55273,122.873046 -1.7793,4.85156 c 2.90071,3.85284 6.07588,7.47873 9.48828,10.85742 l 1.64063,-4.47265 c -3.3886,-3.49337 -6.5263,-7.24057 -9.34961,-11.23633 z"
                   transform="matrix(1.2599271,0,0,1.2599271,-458.3682,4.4557436)" />
                <path
                   id="path125270"
                   style="fill:#ffffff;fill-opacity:1;stroke:none;stroke-width:2.86949;stroke-linecap:square;stroke-linejoin:round;stroke-miterlimit:4;stroke-dasharray:none;stroke-opacity:0.416882"
                   d="m 117.08398,210.33789 -1.89843,5.17383 c 1.36431,2.13326 2.82831,4.19352 4.3457,6.20898 l 1.7793,-4.85156 c -1.49362,-2.11387 -2.90487,-4.29186 -4.22657,-6.53125 z"
                   transform="matrix(1.2599271,0,0,1.2599271,-458.3682,4.4557436)" />
                <path
                   id="path125272"
                   style="fill:#ffffff;fill-opacity:1;stroke:none;stroke-width:2.86949;stroke-linecap:square;stroke-linejoin:round;stroke-miterlimit:4;stroke-dasharray:none;stroke-opacity:0.416882"
                   d="m 157.69727,99.642578 -7.08399,19.308592 c 0.93766,-0.96167 1.88685,-1.89862 2.84375,-2.81445 -9.09627,22.9011 -18.37904,48.23391 -21.49023,69.05273 10.22375,-27.47542 20.48394,-54.97556 30.83789,-82.36523 -0.27577,0.18921 -0.55051,0.37915 -0.82422,0.57422 -1.33882,-1.27737 -2.77042,-2.53008 -4.2832,-3.755862 z"
                   transform="matrix(1.2599271,0,0,1.2599271,-458.3682,4.4557436)"
                   sodipodi:nodetypes="ccccccc" />
                <path
                   id="path125274"
                   style="fill:#ffffff;fill-opacity:1;stroke-width:2.86949;stroke-linecap:square;stroke-linejoin:round;stroke-miterlimit:4;stroke-dasharray:none;stroke-opacity:0.416882"
                   d="m 190.43164,163.93555 13.82617,-37.6875 c -3.1946,0.91274 -6.42191,2.08695 -9.69726,3.60742 2.24817,-7.89637 5.38014,-15.43237 10.75195,-22.05274 l 7.81055,-9.033199 c 0.35388,0.134843 0.70395,0.291017 1.05664,0.433594 l 1.51172,-4.121094 c -6.23163,-2.502876 -12.70791,-3.916015 -19.38282,-3.916015 -5.63318,0 -11.12311,1.009942 -16.44531,2.830078 l -0.58144,0.17377 c -9.63611,25.730236 -19.0041,51.565356 -28.47129,77.359436 l 5.68164,-4.65039 c 4.70959,-3.6295 9.61836,-6.87019 14.81054,-9.55079 -13.03437,26.32415 -26.7392,55.88625 -30.11328,77.38672 14.7723,-25.27491 30.52254,-49.58753 49.24219,-70.77929 z"
                   transform="matrix(1.2599271,0,0,1.2599271,-458.3682,4.4557436)"
                   sodipodi:nodetypes="cccccccsccccccc" />
              </g>
              <g
                 id="g125334"
                 transform="matrix(1.709902,0,0,1.7325968,79.788353,-1421.9892)"
                 style="fill:#ffffff;fill-opacity:1;stroke-width:1.66713;stroke-miterlimit:4;stroke-dasharray:none">
                <path
                   id="path125278"
                   style="color:#000000;fill:#ffffff;fill-opacity:1;stroke-width:2.86949;stroke-miterlimit:4;stroke-dasharray:none"
                   d="m 117.20703,264.77344 1.80664,-4.92578 -3.12305,2.46093 c -0.56084,0.44701 -0.72309,1.34949 -0.35546,2.03907 0.36421,0.67917 1.11102,0.86932 1.67187,0.42578 z"
                   transform="matrix(0.58482884,0,0,0.57716833,-46.66253,820.72713)" />
                <path
                   id="path125280"
                   style="color:#000000;fill:#ffffff;fill-opacity:1;stroke-width:2.86949;stroke-miterlimit:4;stroke-dasharray:none"
                   d="m 114.41797,82.134766 -0.47852,1.892578 c 0,0 -3.06281,12.083319 -4.13672,27.537106 -1.0531,15.15452 -0.30325,33.65792 7.48243,47.6211 -5.62876,10.90634 -10.09148,21.76868 -13.12305,31.43359 l -0.20899,0.65625 0.20899,0.65625 c 2.63995,8.41413 6.38141,16.32175 11.02344,23.58008 l 1.89843,-5.17383 c -3.52365,-5.97022 -6.43142,-12.35964 -8.59765,-19.09375 6.06402,-19.02743 17.82745,-42.98479 33.16992,-62.13281 2.87052,-3.58253 5.862,-6.98585 8.95703,-10.16016 l 7.08399,-19.308592 C 148.01124,91.794179 134.66473,85.19921 116.32422,82.421875 Z"
                   transform="matrix(0.58482884,0,0,0.57716833,-46.66253,820.72713)" />
                <g
                   inkscape:export-ydpi="598.79999"
                   inkscape:export-xdpi="598.79999"
                   inkscape:export-filename="D:\Dropbox\PiSiLinux\logo\g4295-7-3.png"
                   transform="translate(4.4166628,858.48748)"
                   id="g125288"
                   style="fill:#ffffff;fill-opacity:1;stroke-width:1.66713;stroke-miterlimit:4;stroke-dasharray:none">
                  <path
                     id="path125282"
                     style="fill:#ffffff;fill-opacity:1;stroke-width:2.86949;stroke-miterlimit:4;stroke-dasharray:none"
                     d="m 192.29102,218.22266 c -4.16608,0.31355 -8.10895,1.05296 -11.69532,2.14648 0.22742,0.47127 0.53737,0.96718 0.96485,1.47656 l 6.50586,7.89258 z"
                     transform="matrix(0.58482884,0,0,0.57716833,-51.079193,-37.760349)" />
                  <path
                     id="path125284"
                     style="fill:#ffffff;fill-opacity:1;stroke-width:2.86949;stroke-miterlimit:4;stroke-dasharray:none"
                     d="m 197.98438,218.07227 c -0.40067,-0.008 -0.79914,-0.0215 -1.20313,-0.0215 -1.52113,0 -3.0192,0.0612 -4.49023,0.17188 l -4.22461,11.51562 3.90039,4.73242 z"
                     transform="matrix(0.58482884,0,0,0.57716833,-51.079193,-37.760349)" />
                  <path
                     id="path125286"
                     style="fill:#ffffff;fill-opacity:1;stroke-width:2.86949;stroke-miterlimit:4;stroke-dasharray:none"
                     d="m 197.98438,218.07227 -6.01758,16.39843 0.4414,0.53516 c 0.98523,1.19242 2.22784,1.89567 3.51563,2.10937 V 245.5 h 1.71094 v -8.38672 c 1.28186,-0.21676 2.51692,-0.9198 3.49609,-2.10742 l 10.86133,-13.16016 c 0.42063,-0.51631 0.74841,-1.00356 0.9707,-1.47656 -4.52274,-1.37709 -9.59813,-2.18956 -14.97851,-2.29687 z"
                     transform="matrix(0.58482884,0,0,0.57716833,-51.079193,-37.760349)" />
                </g>
                <g
                   id="g125292"
                   style="fill:#ffffff;fill-opacity:1;stroke-width:1.66713;stroke-miterlimit:4;stroke-dasharray:none">
                  <path
                     style="color:#000000;fill:#ffffff;fill-opacity:1;stroke-width:1.66713;stroke-miterlimit:4;stroke-dasharray:none"
                     d="m 68.419678,954.2561 v 8.16504"
                     id="path125290" />
                </g>
                <g
                   inkscape:export-ydpi="598.79999"
                   inkscape:export-xdpi="598.79999"
                   inkscape:export-filename="D:\Dropbox\PiSiLinux\logo\g4295-7-3.png"
                   transform="translate(3.8787028,858.0599)"
                   id="g125330"
                   style="fill:#ffffff;fill-opacity:1;stroke-width:1.66713;stroke-miterlimit:4;stroke-dasharray:none">
                  <g
                     id="g125310"
                     style="fill:#ffffff;fill-opacity:1;stroke-width:1.66713;stroke-miterlimit:4;stroke-dasharray:none">
                    <g
                       id="g125300"
                       style="fill:#ffffff;fill-opacity:1;stroke-width:1.66713;stroke-miterlimit:4;stroke-dasharray:none">
                      <linearGradient
                         y2="103.7656"
                         x2="46.650902"
                         y1="103.7656"
                         x1="16.9111"
                         gradientUnits="userSpaceOnUse"
                         id="linearGradient125298">
                        <stop
                           id="stop125294"
                           style="stop-color:#EC008C"
                           offset="0" />
                        <stop
                           id="stop125296"
                           style="stop-color:#C4008C"
                           offset="1" />
                      </linearGradient>
                    </g>
                    <g
                       id="g125308"
                       style="fill:#ffffff;fill-opacity:1;stroke-width:1.66713;stroke-miterlimit:4;stroke-dasharray:none">
                      <linearGradient
                         y2="104.6143"
                         x2="53.023399"
                         y1="104.6143"
                         x1="23.283199"
                         gradientUnits="userSpaceOnUse"
                         id="linearGradient125306">
                        <stop
                           id="stop125302"
                           style="stop-color:#EC008C"
                           offset="0" />
                        <stop
                           id="stop125304"
                           style="stop-color:#C4008C"
                           offset="1" />
                      </linearGradient>
                    </g>
                  </g>
                  <g
                     id="g125328"
                     style="fill:#ffffff;fill-opacity:1;stroke-width:1.66713;stroke-miterlimit:4;stroke-dasharray:none">
                    <g
                       id="g125318"
                       style="fill:#ffffff;fill-opacity:1;stroke-width:1.66713;stroke-miterlimit:4;stroke-dasharray:none">
                      <linearGradient
                         y2="103.7656"
                         x2="111.0859"
                         y1="103.7656"
                         x1="81.346703"
                         gradientUnits="userSpaceOnUse"
                         id="linearGradient125316">
                        <stop
                           id="stop125312"
                           style="stop-color:#EC008C"
                           offset="0" />
                        <stop
                           id="stop125314"
                           style="stop-color:#C4008C"
                           offset="1" />
                      </linearGradient>
                    </g>
                    <g
                       id="g125326"
                       style="fill:#ffffff;fill-opacity:1;stroke-width:1.66713;stroke-miterlimit:4;stroke-dasharray:none">
                      <linearGradient
                         y2="104.6133"
                         x2="104.7119"
                         y1="104.6133"
                         x1="74.973602"
                         gradientUnits="userSpaceOnUse"
                         id="linearGradient125324">
                        <stop
                           id="stop125320"
                           style="stop-color:#EC008C"
                           offset="0" />
                        <stop
                           id="stop125322"
                           style="stop-color:#C4008C"
                           offset="1" />
                      </linearGradient>
                    </g>
                  </g>
                </g>
                <g
                   inkscape:export-ydpi="598.79999"
                   inkscape:export-xdpi="598.79999"
                   inkscape:export-filename="D:\Dropbox\PiSiLinux\logo\g4295-7-3.png"
                   style="fill:#ffffff;fill-opacity:1;stroke-width:1.66713;stroke-miterlimit:4;stroke-dasharray:none"
                   transform="translate(-30.549898,-35.03055)"
                   id="g125332" />
              </g>
            </g>
            <g
               aria-label="pisilinux özgürlük simdi basladi"
               transform="matrix(1.0032228,-0.08148089,0.08256235,0.9900819,79.399469,-13.319674)"
               id="text2817"
               style="font-size:13.7373px;line-height:1.25;fill:#000000;stroke-width:1.00028;stroke-miterlimit:4;stroke-dasharray:none">
              <g
                 aria-label="pisilinux özgürlük simdi basladı "
                 transform="rotate(-6.6907193)"
                 id="text20644"
                 style="stroke-width:1.00028;stroke-miterlimit:4;stroke-dasharray:none">
                <g
                   id="g105894"
                   transform="matrix(1.3738325,0,0,1.3738325,-36.645188,-367.12014)"
                   style="fill:#e6e6e6">
                  <path
                     d="m 72.990396,998.0046 h 1.291307 c 0.08242,0 0.15111,-0.0549 0.164847,-0.13737 l 0.755552,-3.72281 c 0.315958,0.56323 0.920399,0.87919 1.758374,0.87919 1.950697,0 3.530486,-1.35999 3.928868,-3.36564 0.398382,-2.00565 -0.631916,-3.37938 -2.582613,-3.37938 -0.920399,0 -1.689687,0.37091 -2.280391,1.0303 l -0.05495,-0.75555 c -0.01374,-0.0687 -0.05495,-0.13737 -0.15111,-0.13737 h -0.906662 c -0.08242,0 -0.15111,0.0549 -0.164847,0.15111 l -1.868273,9.30015 c -0.01374,0.0824 0.02747,0.13737 0.109898,0.13737 z m 2.719986,-6.36037 c 0.219797,-1.07151 1.098984,-1.81332 2.18423,-1.81332 1.07151,0 1.662214,0.74181 1.442417,1.82706 -0.219797,1.08525 -1.085247,1.79959 -2.156756,1.79959 -1.085247,0 -1.689688,-0.72808 -1.469891,-1.81333 z"
                     style="font-style:italic;font-weight:bold;font-family:'Ageo Personal Use';-inkscape-font-specification:'Ageo Personal Use Bold Italic';fill:#e6e6e6;stroke-width:1.00028;stroke-miterlimit:4;stroke-dasharray:none"
                     id="path90149" />
                  <path
                     d="m 84.309923,988.55334 c 0.01374,-0.0824 -0.02747,-0.12364 -0.109898,-0.12364 h -1.277569 c -0.09616,-0.0137 -0.164848,0.0549 -0.178585,0.13738 l -1.236357,6.16804 c -0.01374,0.0824 0.02747,0.13738 0.109898,0.13738 h 1.291306 c 0.08242,0 0.151111,-0.0549 0.164848,-0.13738 z m -1.332518,-2.3216 c -0.123636,0.60444 0.206059,1.01656 0.810501,1.01656 0.618178,0 1.085246,-0.41212 1.208882,-1.01656 0.123636,-0.60445 -0.192322,-1.00283 -0.810501,-1.00283 -0.604441,0 -1.085246,0.39838 -1.208882,1.00283 z"
                     style="font-style:italic;font-weight:bold;font-family:'Ageo Personal Use';-inkscape-font-specification:'Ageo Personal Use Bold Italic';fill:#e6e6e6;stroke-width:1.00028;stroke-miterlimit:4;stroke-dasharray:none"
                     id="path90146" />
                  <path
                     d="m 84.502235,994.29553 c 0.219797,0.19232 1.07151,0.7006 2.349078,0.7006 1.524841,0.0137 2.719986,-0.78302 2.939783,-2.06059 0.192322,-1.1402 -0.480806,-1.621 -1.840799,-1.96444 -0.783026,-0.19232 -1.153933,-0.35717 -1.098984,-0.72807 0.05495,-0.27475 0.494543,-0.50828 1.07151,-0.50828 0.08242,0 0.15111,0 0.233534,0.0137 0.65939,0.0687 1.044035,0.34344 1.208882,0.45334 0.02747,0.0137 0.05495,0.0137 0.08242,0.0137 0.04121,0 0.09616,-0.0275 0.123636,-0.0687 l 0.714339,-0.98909 c 0.05495,-0.0687 0.04121,-0.15111 0,-0.20606 -0.178584,-0.16485 -0.892924,-0.65939 -2.005645,-0.67313 -1.456154,-0.0137 -2.788672,0.72808 -2.980994,2.01939 -0.178585,0.98908 0.357169,1.56605 1.593526,1.92322 0.837976,0.26101 1.401205,0.41212 1.318781,0.82424 -0.09616,0.4808 -0.989085,0.50828 -1.305043,0.50828 -0.71434,-0.0549 -1.22262,-0.35717 -1.469891,-0.52202 -0.02748,-0.0137 -0.05495,-0.0275 -0.08242,-0.0275 -0.04121,0 -0.08242,0.0275 -0.123636,0.0687 l -0.728077,1.0303 c -0.05495,0.0687 -0.05495,0.15111 0,0.19232 z"
                     style="font-style:italic;font-weight:bold;font-family:'Ageo Personal Use';-inkscape-font-specification:'Ageo Personal Use Bold Italic';fill:#e6e6e6;stroke-width:1.00028;stroke-miterlimit:4;stroke-dasharray:none"
                     id="path90143" />
                  <path
                     d="m 93.500159,988.55334 c 0.01374,-0.0824 -0.02747,-0.12364 -0.109899,-0.12364 h -1.277569 c -0.09616,-0.0137 -0.164847,0.0549 -0.178585,0.13738 l -1.236356,6.16804 c -0.01374,0.0824 0.02747,0.13738 0.109898,0.13738 h 1.291306 c 0.08242,0 0.15111,-0.0549 0.164848,-0.13738 z m -1.332518,-2.3216 c -0.123636,0.60444 0.206059,1.01656 0.8105,1.01656 0.618179,0 1.085247,-0.41212 1.208883,-1.01656 0.123635,-0.60445 -0.192323,-1.00283 -0.810501,-1.00283 -0.604441,0 -1.085247,0.39838 -1.208882,1.00283 z"
                     style="font-style:italic;font-weight:bold;font-family:'Ageo Personal Use';-inkscape-font-specification:'Ageo Personal Use Bold Italic';fill:#e6e6e6;stroke-width:1.00028;stroke-miterlimit:4;stroke-dasharray:none"
                     id="path90140" />
                  <path
                     d="m 97.401541,985.09154 c 0.02748,-0.0824 -0.02747,-0.13737 -0.109898,-0.13737 h -1.291306 c -0.08242,0 -0.137373,0.055 -0.164848,0.13737 l -1.909485,9.64358 c -0.01374,0.0824 0.02747,0.13738 0.09616,0.13738 h 1.305044 c 0.06869,0 0.137373,-0.0549 0.15111,-0.13738 z"
                     style="font-style:italic;font-weight:bold;font-family:'Ageo Personal Use';-inkscape-font-specification:'Ageo Personal Use Bold Italic';fill:#e6e6e6;stroke-width:1.00028;stroke-miterlimit:4;stroke-dasharray:none"
                     id="path90137" />
                  <path
                     d="m 99.942925,988.55334 c 0.01374,-0.0824 -0.02747,-0.12364 -0.109899,-0.12364 h -1.277568 c -0.09616,-0.0137 -0.164848,0.0549 -0.178585,0.13738 l -1.236357,6.16804 c -0.01374,0.0824 0.02747,0.13738 0.109898,0.13738 h 1.291306 c 0.08242,0 0.151111,-0.0549 0.164848,-0.13738 z m -1.332518,-2.3216 c -0.123636,0.60444 0.206059,1.01656 0.8105,1.01656 0.618183,0 1.085243,-0.41212 1.208883,-1.01656 0.12364,-0.60445 -0.19232,-1.00283 -0.810501,-1.00283 -0.604441,0 -1.085247,0.39838 -1.208882,1.00283 z"
                     style="font-style:italic;font-weight:bold;font-family:'Ageo Personal Use';-inkscape-font-specification:'Ageo Personal Use Bold Italic';fill:#e6e6e6;stroke-width:1.00028;stroke-miterlimit:4;stroke-dasharray:none"
                     id="path90134" />
                  <path
                     d="m 100.3413,994.73512 c -0.0137,0.0824 0.0275,0.13738 0.10989,0.13738 h 1.29131 c 0.0687,0 0.15111,-0.0549 0.16485,-0.13738 l 0.60444,-2.99473 c 0.2198,-0.9204 0.85171,-1.89574 1.90948,-1.89574 0.75556,0 1.19515,0.50828 0.97535,1.59352 l -0.65939,3.29695 c -0.0137,0.0824 0.0275,0.13738 0.1099,0.13738 h 1.29131 c 0.0824,0 0.15111,-0.0549 0.16484,-0.13738 l 0.71434,-3.58543 c 0.37091,-1.82706 -0.42585,-2.88483 -1.88201,-2.88483 -0.94787,0 -1.70342,0.39838 -2.23918,1.04403 v -0.74181 c 0,-0.0824 -0.0412,-0.13738 -0.13737,-0.13738 h -1.01656 c -0.0824,0 -0.15111,0.0549 -0.16485,0.13738 z"
                     style="font-style:italic;font-weight:bold;font-family:'Ageo Personal Use';-inkscape-font-specification:'Ageo Personal Use Bold Italic';fill:#e6e6e6;stroke-width:1.00028;stroke-miterlimit:4;stroke-dasharray:none"
                     id="path90131" />
                  <path
                     d="m 112.58122,994.73512 c 0.0137,0.0824 0.055,0.13738 0.13737,0.13738 h 1.01656 c 0.0824,0 0.15111,-0.0549 0.16485,-0.13738 l 1.23636,-6.16804 c 0.0137,-0.0824 -0.0275,-0.13738 -0.1099,-0.13738 h -1.27757 c -0.0962,0 -0.16485,0.0549 -0.17858,0.13738 l -0.59071,3.00847 c -0.32969,1.31878 -1.16767,1.96443 -1.95069,1.97817 -0.86545,0 -1.26384,-0.50828 -1.0303,-1.68969 l 0.65939,-3.29695 c 0.0137,-0.0824 -0.0275,-0.13738 -0.1099,-0.13738 h -1.29131 c -0.0824,0 -0.15111,0.0549 -0.16484,0.13738 l -0.71434,3.58543 c -0.37091,1.82706 0.39838,2.8711 1.8408,2.88484 0.94787,0 1.74463,-0.39839 2.36281,-1.0303 z"
                     style="font-style:italic;font-weight:bold;font-family:'Ageo Personal Use';-inkscape-font-specification:'Ageo Personal Use Bold Italic';fill:#e6e6e6;stroke-width:1.00028;stroke-miterlimit:4;stroke-dasharray:none"
                     id="path90128" />
                  <path
                     d="m 116.75733,994.7626 1.64848,-1.8408 0.96161,1.8408 c 0.0275,0.0687 0.0824,0.1099 0.17859,0.1099 h 1.621 c 0.1099,0 0.15111,-0.0824 0.1099,-0.16485 l -1.63474,-3.09089 2.87109,-3.02221 c 0.0962,-0.0962 0.0824,-0.16485 -0.0275,-0.16485 H 120.906 c -0.0824,0 -0.17859,0.0412 -0.24727,0.1099 l -1.70343,1.8408 -0.96161,-1.8408 c -0.0275,-0.0687 -0.0962,-0.1099 -0.17858,-0.1099 h -1.621 c -0.1099,0 -0.15111,0.0824 -0.1099,0.17859 l 1.64847,3.06342 -2.85736,3.03594 c -0.0687,0.0962 -0.0549,0.16485 0.0549,0.16485 h 1.59353 c 0.0687,0 0.16485,-0.0412 0.23353,-0.1099 z"
                     style="font-style:italic;font-weight:bold;font-family:'Ageo Personal Use';-inkscape-font-specification:'Ageo Personal Use Bold Italic';fill:#e6e6e6;stroke-width:1.00028;stroke-miterlimit:4;stroke-dasharray:none"
                     id="path90125" />
                </g>
                <g
                   id="g105936"
                   transform="matrix(1.5166972,0,0,1.5166972,-46.518875,-506.64138)">
                  <g
                     id="g82695"
                     transform="matrix(0.97384566,0.19628027,-0.19888542,0.98677107,-75.512819,64.873759)"
                     style="fill:#1f549e;fill-opacity:1;stroke-width:1.00028;stroke-miterlimit:4;stroke-dasharray:none">
                    <path
                       id="path58883"
                       style="fill:#3261ad;fill-opacity:1;stroke-width:4.66016;stroke-linecap:square;stroke-linejoin:round;stroke-miterlimit:4;stroke-dasharray:none;stroke-opacity:0.416882"
                       d="m 1811.8008,282.67578 -57.711,12.5625 v 47.60742 l 38.834,-8.45312 z"
                       transform="matrix(0.21606455,0,0,0.21323438,-46.252734,818.70764)" />
                    <path
                       id="path59238"
                       style="fill:#104b93;fill-opacity:1;stroke-width:4.66016;stroke-linecap:square;stroke-linejoin:round;stroke-miterlimit:4;stroke-dasharray:none;stroke-opacity:0.416882"
                       d="m 1822.752,280.29102 -10.9512,2.38476 -18.877,51.7168 10.9532,-2.38477 z"
                       transform="matrix(0.21606455,0,0,0.21323438,-46.252734,818.70764)" />
                    <path
                       id="path61856"
                       style="fill:#101714;fill-opacity:1;stroke-width:4.66016;stroke-linecap:square;stroke-linejoin:round;stroke-miterlimit:4;stroke-dasharray:none;stroke-opacity:0.416882"
                       d="m 1846.0586,275.2168 -23.3066,5.07422 -18.875,51.71679 23.3066,-5.07422 z"
                       transform="matrix(0.21606455,0,0,0.21323438,-46.252734,818.70764)" />
                    <path
                       id="path65722"
                       style="fill:#ed1d47;fill-opacity:1;stroke-width:4.66016;stroke-linecap:square;stroke-linejoin:round;stroke-miterlimit:4;stroke-dasharray:none;stroke-opacity:0.416882"
                       d="m 1910.9844,261.08398 -64.9258,14.13282 -18.875,51.71679 64.9258,-14.13281 z"
                       transform="matrix(0.21606455,0,0,0.21323438,-46.252734,818.70764)" />
                    <path
                       id="path69042"
                       style="fill:#ee3e82;fill-opacity:1;stroke-width:4.66016;stroke-linecap:square;stroke-linejoin:round;stroke-miterlimit:4;stroke-dasharray:none;stroke-opacity:0.416882"
                       d="m 1948.9199,252.82617 -37.9355,8.25781 -18.875,51.7168 37.9336,-8.25781 z"
                       transform="matrix(0.21606455,0,0,0.21323438,-46.252734,818.70764)" />
                    <path
                       id="path71933"
                       style="fill:#ed1d47;fill-opacity:1;stroke-width:4.66016;stroke-linecap:square;stroke-linejoin:round;stroke-miterlimit:4;stroke-dasharray:none;stroke-opacity:0.416882"
                       d="m 2070.998,226.25195 -122.0781,26.57422 -18.8769,51.7168 122.0781,-26.57422 z"
                       transform="matrix(0.21606455,0,0,0.21323438,-46.252734,818.70764)" />
                    <path
                       id="path75856"
                       style="fill:#276aff;fill-opacity:1;stroke-width:4.66016;stroke-linecap:square;stroke-linejoin:round;stroke-miterlimit:4;stroke-dasharray:none;stroke-opacity:0.416882"
                       d="m 2070.998,226.25195 -18.8769,51.7168 24.332,-5.29687 v -47.60743 z"
                       transform="matrix(0.21606455,0,0,0.21323438,-46.252734,818.70764)" />
                  </g>
                  <path
                     id="rect24313-1"
                     style="fill:#ffffff;fill-opacity:1;stroke-width:1.00028;stroke-linecap:square;stroke-linejoin:round;stroke-miterlimit:4;stroke-dasharray:none;stroke-opacity:0.416882"
                     d="m 348.95458,944.68502 69.65129,-14.96338 V 939.873 l -69.65129,14.96339 z"
                     sodipodi:nodetypes="ccccc"
                     transform="matrix(0.97384566,0.19628027,-0.19888542,0.98677107,-79.97192,-2.4410718)" />
                  <path
                     d="m 73.203323,1003.4231 c -0.19919,1.0028 0.336563,1.6897 1.339383,1.6897 1.00282,0 1.820187,-0.6869 2.019377,-1.6897 0.19919,-1.0028 -0.343431,-1.6828 -1.346251,-1.6828 -1.00282,0 -1.813319,0.68 -2.012509,1.6828 z m 0.783024,0.01 c 0.109898,-0.5495 0.535753,-0.9067 1.071506,-0.9067 0.542622,0 0.831104,0.3572 0.721206,0.9067 -0.109898,0.5357 -0.535753,0.9067 -1.078375,0.9067 -0.535753,0 -0.824235,-0.371 -0.714337,-0.9067 z m 0.418986,-2.5757 c -0.04808,0.2541 0.08242,0.4327 0.343432,0.4327 0.254139,0 0.473935,-0.1786 0.522016,-0.4327 0.04808,-0.2542 -0.08929,-0.4328 -0.343432,-0.4328 -0.261008,0 -0.467067,0.1718 -0.522016,0.4328 z m 1.10585,0 c -0.04808,0.2541 0.08242,0.4327 0.343431,0.4327 0.254139,0 0.460198,-0.1786 0.508279,-0.4327 0.04808,-0.2542 -0.07555,-0.4328 -0.329694,-0.4328 -0.261008,0 -0.467067,0.1718 -0.522016,0.4328 z"
                     style="font-style:italic;font-weight:bold;font-size:6.86863px;font-family:'Ageo Personal Use';-inkscape-font-specification:'Ageo Personal Use Bold Italic';fill:#3e3e3e;stroke-width:1.00023172;stroke-miterlimit:4;stroke-dasharray:none;fill-opacity:1"
                     id="path90122" />
                  <path
                     d="m 79.254585,1005.0441 c 0.04121,0 0.06869,-0.027 0.07555,-0.069 l 0.116767,-0.5838 c 0.0069,-0.041 -0.01374,-0.069 -0.04808,-0.069 h -1.332514 l 1.847661,-2.3834 c 0.06182,-0.076 0.04121,-0.1168 -0.01374,-0.1168 h -2.417758 c -0.04121,0 -0.07555,0.027 -0.08242,0.069 l -0.116766,0.5839 c -0.0069,0.041 0.01374,0.069 0.05495,0.069 h 1.25009 l -1.861398,2.4041 c -0.04808,0.048 -0.03434,0.096 0.02747,0.096 z"
                     style="font-style:italic;font-weight:bold;font-size:6.86863px;font-family:'Ageo Personal Use';-inkscape-font-specification:'Ageo Personal Use Bold Italic';fill:#3e3e3e;stroke-width:1.00023172;stroke-miterlimit:4;stroke-dasharray:none;fill-opacity:1"
                     id="path90119" />
                  <path
                     d="m 82.070719,1001.7472 c -0.975346,0 -1.765238,0.6868 -1.964429,1.6897 -0.19919,1.0028 0.315957,1.6759 1.291303,1.6828 0.432724,0 0.80363,-0.1649 1.078375,-0.4465 l -0.05495,0.261 c -0.116767,0.5976 -0.535753,0.9616 -1.167667,0.9616 -0.384644,-0.014 -0.693732,-0.1373 -0.865448,-0.2541 -0.01374,-0.01 -0.02747,-0.014 -0.04121,-0.014 -0.02061,0 -0.04121,0.014 -0.05495,0.034 l -0.39838,0.5701 c -0.02747,0.041 -0.02747,0.082 0.0069,0.103 0.240402,0.158 0.652519,0.3366 1.236353,0.3435 1.016557,0 1.861399,-0.68 2.067458,-1.7241 l 0.604439,-3.0634 c 0.0069,-0.041 -0.01374,-0.069 -0.05495,-0.069 h -0.446461 c -0.03434,0 -0.06869,0.014 -0.09616,0.069 l -0.192321,0.3847 c -0.164848,-0.3366 -0.480805,-0.5289 -0.947871,-0.5289 z m -1.181405,1.6828 c 0.109898,-0.5426 0.535753,-0.9067 1.071507,-0.9067 0.556359,0 0.865447,0.3641 0.755549,0.9067 -0.109898,0.5426 -0.556359,0.9067 -1.112718,0.9067 -0.535753,0 -0.824236,-0.3641 -0.714338,-0.9067 z"
                     style="font-style:italic;font-weight:bold;font-size:6.86863px;font-family:'Ageo Personal Use';-inkscape-font-specification:'Ageo Personal Use Bold Italic';fill:#3e3e3e;stroke-width:1.00023172;stroke-miterlimit:4;stroke-dasharray:none;fill-opacity:1"
                     id="path90116" />
                  <path
                     d="m 86.342994,1004.9754 c 0.0069,0.041 0.02747,0.069 0.06869,0.069 h 0.508278 c 0.04121,0 0.07555,-0.027 0.08242,-0.069 l 0.618177,-3.084 c 0.0069,-0.041 -0.01374,-0.069 -0.05495,-0.069 h -0.638783 c -0.04808,0 -0.08242,0.027 -0.08929,0.069 l -0.295351,1.5043 c -0.164847,0.6593 -0.583834,0.9822 -0.975346,0.989 -0.432723,0 -0.631914,-0.2541 -0.515147,-0.8448 l 0.329694,-1.6485 c 0.0069,-0.041 -0.01374,-0.069 -0.05495,-0.069 h -0.645651 c -0.04121,0 -0.07555,0.027 -0.08242,0.069 l -0.357168,1.7927 c -0.185453,0.9136 0.19919,1.4356 0.920396,1.4424 0.473936,0 0.872316,-0.1991 1.181404,-0.5151 z m -1.009688,-4.0456 c -0.05495,0.2542 0.08242,0.4259 0.343431,0.4259 0.25414,0 0.460199,-0.1717 0.515148,-0.4259 0.04808,-0.261 -0.08929,-0.4327 -0.343432,-0.4327 -0.261008,0 -0.467067,0.1717 -0.515147,0.4327 z m 1.098981,0 c -0.05495,0.2542 0.08242,0.4259 0.343431,0.4259 0.254139,0 0.460198,-0.1717 0.515147,-0.4259 0.04808,-0.261 -0.08929,-0.4327 -0.343431,-0.4327 -0.261008,0 -0.467067,0.1717 -0.515147,0.4327 z"
                     style="font-style:italic;font-weight:bold;font-size:6.86863px;font-family:'Ageo Personal Use';-inkscape-font-specification:'Ageo Personal Use Bold Italic';fill:#3e3e3e;stroke-width:1.00023172;stroke-miterlimit:4;stroke-dasharray:none;fill-opacity:1"
                     id="path90113" />
                  <path
                     d="m 90.052043,1002.6401 c 0.01374,0 0.02061,0.01 0.03434,0.01 0.03434,0 0.05495,-0.021 0.06869,-0.048 l 0.30222,-0.6731 c 0.02061,-0.041 0.0069,-0.076 -0.03434,-0.089 -0.09616,-0.028 -0.261008,-0.082 -0.473936,-0.082 -0.329694,0 -0.638783,0.1443 -0.886053,0.3503 l -0.02747,-0.2129 c 0,-0.034 -0.02061,-0.069 -0.07556,-0.069 H 88.51347 c -0.04121,0 -0.07555,0.027 -0.08242,0.069 l -0.618177,3.084 c -0.0069,0.041 0.01374,0.069 0.05495,0.069 h 0.645651 c 0.04808,0 0.07556,-0.027 0.08242,-0.069 l 0.405249,-2.0399 c 0.171716,-0.2473 0.418987,-0.3916 0.638783,-0.3916 0.157978,0 0.329694,0.055 0.412117,0.096 z"
                     style="font-style:italic;font-weight:bold;font-size:6.86863px;font-family:'Ageo Personal Use';-inkscape-font-specification:'Ageo Personal Use Bold Italic';fill:#3e3e3e;stroke-width:1.00023172;stroke-miterlimit:4;stroke-dasharray:none;fill-opacity:1"
                     id="path90110" />
                  <path
                     d="m 92.050812,1000.1537 c 0.01374,-0.041 -0.01374,-0.069 -0.05495,-0.069 h -0.645651 c -0.04121,0 -0.06869,0.027 -0.08242,0.069 l -0.95474,4.8217 c -0.0069,0.041 0.01374,0.069 0.04808,0.069 h 0.65252 c 0.03434,0 0.06869,-0.027 0.07555,-0.069 z"
                     style="font-style:italic;font-weight:bold;font-size:6.86863px;font-family:'Ageo Personal Use';-inkscape-font-specification:'Ageo Personal Use Bold Italic';fill:#3e3e3e;stroke-width:1.00023172;stroke-miterlimit:4;stroke-dasharray:none;fill-opacity:1"
                     id="path90107" />
                  <path
                     d="m 94.255633,1004.9754 c 0.0069,0.041 0.02747,0.069 0.06869,0.069 h 0.508279 c 0.04121,0 0.07555,-0.027 0.08242,-0.069 l 0.618176,-3.084 c 0.0069,-0.041 -0.01374,-0.069 -0.05495,-0.069 h -0.638782 c -0.04808,0 -0.08242,0.027 -0.08929,0.069 l -0.295351,1.5043 c -0.164847,0.6593 -0.583833,0.9822 -0.975345,0.989 -0.432724,0 -0.631914,-0.2541 -0.515147,-0.8448 l 0.329694,-1.6485 c 0.0069,-0.041 -0.01374,-0.069 -0.05495,-0.069 h -0.645651 c -0.04121,0 -0.07555,0.027 -0.08242,0.069 l -0.357169,1.7927 c -0.185453,0.9136 0.199191,1.4356 0.920397,1.4424 0.473935,0 0.872316,-0.1991 1.181404,-0.5151 z m -1.009688,-4.0456 c -0.05495,0.2542 0.08242,0.4259 0.343431,0.4259 0.254139,0 0.460198,-0.1717 0.515147,-0.4259 0.04808,-0.261 -0.08929,-0.4327 -0.343431,-0.4327 -0.261008,0 -0.467067,0.1717 -0.515147,0.4327 z m 1.09898,0 c -0.05495,0.2542 0.08242,0.4259 0.343432,0.4259 0.254139,0 0.460198,-0.1717 0.515147,-0.4259 0.04808,-0.261 -0.08929,-0.4327 -0.343431,-0.4327 -0.261008,0 -0.467067,0.1717 -0.515148,0.4327 z"
                     style="font-style:italic;font-weight:bold;font-size:6.86863px;font-family:'Ageo Personal Use';-inkscape-font-specification:'Ageo Personal Use Bold Italic';fill:#3e3e3e;stroke-width:1.00023172;stroke-miterlimit:4;stroke-dasharray:none;fill-opacity:1"
                     id="path90104" />
                  <path
                     d="m 98.218821,1001.8227 c -0.03434,0 -0.06869,0.014 -0.08242,0.041 l -1.256959,1.257 0.59757,-2.9741 c 0.0069,-0.034 -0.0206,-0.062 -0.06182,-0.062 h -0.65252 c -0.03434,0 -0.06182,0.027 -0.06869,0.062 l -0.968477,4.8355 c -0.0069,0.034 0.01374,0.062 0.04808,0.062 h 0.659389 c 0.03434,0 0.06869,-0.027 0.07555,-0.062 l 0.274745,-1.3875 0.941002,1.415 c 0.01374,0.027 0.04121,0.034 0.08242,0.034 h 0.85171 c 0.08242,0 0.103029,-0.027 0.06182,-0.089 l -1.092112,-1.6141 1.476756,-1.4287 c 0.06182,-0.055 0.06182,-0.089 -0.01374,-0.089 z"
                     style="font-style:italic;font-weight:bold;font-size:6.86863px;font-family:'Ageo Personal Use';-inkscape-font-specification:'Ageo Personal Use Bold Italic';fill:#3e3e3e;stroke-width:1.00023172;stroke-miterlimit:4;stroke-dasharray:none;fill-opacity:1"
                     id="path90101" />
                  <path
                     d="m 100.65029,1004.7556 c 0.1099,0.096 0.53576,0.3503 1.17454,0.3503 0.76242,0.01 1.35999,-0.3915 1.46988,-1.0303 0.0962,-0.5701 -0.2404,-0.8105 -0.92039,-0.9822 -0.39151,-0.096 -0.57697,-0.1786 -0.54949,-0.364 0.0275,-0.1374 0.24727,-0.2541 0.53575,-0.2541 0.0412,0 0.0756,0 0.11677,0.01 0.32969,0.034 0.52201,0.1717 0.60444,0.2267 0.0137,0.01 0.0275,0.01 0.0412,0.01 0.0206,0 0.0481,-0.014 0.0618,-0.034 l 0.35717,-0.4945 c 0.0275,-0.034 0.0206,-0.076 0,-0.1031 -0.0893,-0.082 -0.44647,-0.3297 -1.00282,-0.3365 -0.72808,-0.01 -1.39434,0.364 -1.4905,1.0097 -0.0893,0.4945 0.17859,0.783 0.79676,0.9616 0.41899,0.1305 0.7006,0.206 0.65939,0.4121 -0.0481,0.2404 -0.49454,0.2541 -0.65252,0.2541 -0.35717,-0.027 -0.61131,-0.1786 -0.73494,-0.261 -0.0137,-0.01 -0.0275,-0.014 -0.0412,-0.014 -0.0206,0 -0.0412,0.014 -0.0618,0.034 l -0.36404,0.5152 c -0.0275,0.034 -0.0275,0.076 0,0.096 z"
                     style="font-style:italic;font-weight:bold;font-size:6.86863px;font-family:'Ageo Personal Use';-inkscape-font-specification:'Ageo Personal Use Bold Italic';fill:#3e3e3e;stroke-width:1.00023172;stroke-miterlimit:4;stroke-dasharray:none;fill-opacity:1"
                     id="path90098" />
                  <path
                     d="m 105.14924,1001.8846 c 0.007,-0.041 -0.0137,-0.062 -0.055,-0.062 h -0.63878 c -0.0481,-0.01 -0.0824,0.027 -0.0893,0.069 l -0.61818,3.084 c -0.007,0.041 0.0137,0.069 0.0549,0.069 h 0.64565 c 0.0412,0 0.0756,-0.027 0.0824,-0.069 z m -0.66626,-1.1608 c -0.0618,0.3022 0.10303,0.5082 0.40525,0.5082 0.30909,0 0.54262,-0.206 0.60444,-0.5082 0.0618,-0.3023 -0.0962,-0.5015 -0.40525,-0.5015 -0.30222,0 -0.54262,0.1992 -0.60444,0.5015 z"
                     style="font-style:italic;font-weight:bold;font-size:6.86863px;font-family:'Ageo Personal Use';-inkscape-font-specification:'Ageo Personal Use Bold Italic';fill:#3e3e3e;stroke-width:1.00023172;stroke-miterlimit:4;stroke-dasharray:none;fill-opacity:1"
                     id="path90095" />
                  <path
                     d="m 106.04903,1001.8159 c -0.0412,0.01 -0.0756,0.034 -0.0824,0.075 l -0.61817,3.084 c -0.007,0.041 0.0137,0.069 0.055,0.069 h 0.64565 c 0.0412,0 0.0755,-0.027 0.0824,-0.069 l 0.30222,-1.5111 c 0.0962,-0.4121 0.35717,-0.9341 0.85858,-0.9341 0.36404,0 0.51515,0.2541 0.40525,0.7968 l -0.3297,1.6484 c -0.007,0.034 0.0137,0.069 0.0549,0.069 h 0.65252 c 0.0412,0 0.0687,-0.027 0.0756,-0.069 l 0.28848,-1.4355 c 0.0962,-0.4465 0.32969,-1.0097 0.87918,-1.0097 0.36404,0 0.51515,0.2541 0.40525,0.7968 l -0.32969,1.6484 c -0.007,0.041 0.0137,0.069 0.0618,0.069 h 0.64565 c 0.0412,0 0.0687,-0.027 0.0756,-0.069 l 0.35717,-1.7927 c 0.18545,-0.9135 -0.17858,-1.4424 -0.85858,-1.4424 -0.48767,0 -0.88605,0.2404 -1.16766,0.6319 -0.10303,-0.4121 -0.41212,-0.6319 -0.85171,-0.6319 -0.43273,0 -0.76929,0.1855 -1.02343,0.4946 l -0.007,-0.3435 c 0,-0.041 -0.0206,-0.075 -0.0687,-0.075 z"
                     style="font-style:italic;font-weight:bold;font-size:6.86863px;font-family:'Ageo Personal Use';-inkscape-font-specification:'Ageo Personal Use Bold Italic';fill:#3e3e3e;stroke-width:1.00023172;stroke-miterlimit:4;stroke-dasharray:none;fill-opacity:1"
                     id="path90092" />
                  <path
                     d="m 112.34069,1005.1197 c 0.45333,0 0.83797,-0.1923 1.13332,-0.5152 l 0.0275,0.3778 c 0.007,0.034 0.0275,0.062 0.0687,0.062 h 0.4602 c 0.0412,0 0.0756,-0.021 0.0824,-0.069 l 0.96848,-4.8286 c 0.007,-0.041 -0.0137,-0.069 -0.055,-0.069 h -0.64565 c -0.0343,0 -0.0687,0.028 -0.0755,0.069 l -0.41212,2.0468 c -0.16485,-0.2747 -0.4602,-0.4327 -0.87919,-0.4327 -0.97534,0 -1.75837,0.6731 -1.95756,1.676 -0.19919,0.9959 0.30909,1.6828 1.28444,1.6828 z m 1.29817,-1.6828 c -0.1099,0.5495 -0.56323,0.9066 -1.09898,0.9066 -0.52889,0 -0.81737,-0.3709 -0.70747,-0.9066 0.1099,-0.5427 0.53575,-0.9067 1.0715,-0.9067 0.54263,0 0.84485,0.364 0.73495,0.9067 z"
                     style="font-style:italic;font-weight:bold;font-size:6.86863px;font-family:'Ageo Personal Use';-inkscape-font-specification:'Ageo Personal Use Bold Italic';fill:#3e3e3e;stroke-width:1.00023172;stroke-miterlimit:4;stroke-dasharray:none;fill-opacity:1"
                     id="path90089" />
                  <path
                     d="m 116.33136,1001.8846 c 0.007,-0.041 -0.0137,-0.062 -0.055,-0.062 h -0.63878 c -0.0481,-0.01 -0.0824,0.027 -0.0893,0.069 l -0.61817,3.084 c -0.007,0.041 0.0137,0.069 0.055,0.069 h 0.64565 c 0.0412,0 0.0756,-0.027 0.0824,-0.069 z m -0.66626,-1.1608 c -0.0618,0.3022 0.10303,0.5082 0.40525,0.5082 0.30909,0 0.54262,-0.206 0.60444,-0.5082 0.0618,-0.3023 -0.0962,-0.5015 -0.40525,-0.5015 -0.30222,0 -0.54262,0.1992 -0.60444,0.5015 z"
                     style="font-style:italic;font-weight:bold;font-size:6.86863px;font-family:'Ageo Personal Use';-inkscape-font-specification:'Ageo Personal Use Bold Italic';fill:#3e3e3e;stroke-width:1.00023172;stroke-miterlimit:4;stroke-dasharray:none;fill-opacity:1"
                     id="path90086" />
                  <path
                     d="m 118.76284,1005.0441 c 0.0412,0 0.0756,-0.027 0.0962,-0.069 l 0.17858,-0.3709 c 0.15798,0.3229 0.47394,0.5152 0.93414,0.5152 0.96847,0 1.7515,-0.6869 1.95069,-1.6828 0.19919,-1.0029 -0.30909,-1.676 -1.27757,-1.676 -0.41898,0 -0.78302,0.158 -1.05777,0.4327 l 0.41212,-2.0468 c 0.007,-0.041 -0.0206,-0.069 -0.055,-0.069 h -0.64565 c -0.0412,0 -0.0756,0.028 -0.0824,0.069 l -0.96848,4.8355 c -0.007,0.034 0.0137,0.062 0.0549,0.062 z m 1.66908,-2.5139 c 0.53575,0 0.8311,0.364 0.7212,0.9067 -0.1099,0.5357 -0.55636,0.9066 -1.08524,0.9066 -0.53575,0 -0.83797,-0.364 -0.72808,-0.9066 0.1099,-0.5427 0.55636,-0.9067 1.09212,-0.9067 z"
                     style="font-style:italic;font-weight:bold;font-size:6.86863px;font-family:'Ageo Personal Use';-inkscape-font-specification:'Ageo Personal Use Bold Italic';fill:#3e3e3e;stroke-width:1.00023172;stroke-miterlimit:4;stroke-dasharray:none;fill-opacity:1"
                     id="path90083" />
                  <path
                     d="m 125.22622,1002.2555 c -0.16485,-0.316 -0.47394,-0.4946 -0.92727,-0.4946 -0.96848,0 -1.75837,0.6731 -1.95756,1.676 -0.19919,0.9959 0.31596,1.6896 1.28444,1.6828 0.45333,0 0.83797,-0.1855 1.13332,-0.5083 l 0.0206,0.364 c 0.007,0.041 0.0206,0.069 0.0618,0.069 h 0.52889 c 0.0412,0 0.0756,-0.034 0.0824,-0.069 l 0.61818,-3.0908 c 0.007,-0.041 -0.0137,-0.069 -0.055,-0.069 H 125.494 c -0.0412,0 -0.0687,0.027 -0.0893,0.069 z m -2.10867,1.1814 c 0.1099,-0.5427 0.53575,-0.8998 1.0715,-0.8998 0.54263,0 0.84485,0.3571 0.74182,0.8998 -0.11677,0.5426 -0.56323,0.9066 -1.10585,0.9066 -0.52889,0 -0.81737,-0.3709 -0.70747,-0.9066 z"
                     style="font-style:italic;font-weight:bold;font-size:6.86863px;font-family:'Ageo Personal Use';-inkscape-font-specification:'Ageo Personal Use Bold Italic';fill:#3e3e3e;stroke-width:1.00023172;stroke-miterlimit:4;stroke-dasharray:none;fill-opacity:1"
                     id="path90080" />
                  <path
                     d="m 126.16035,1004.7556 c 0.1099,0.096 0.53575,0.3503 1.17454,0.3503 0.76242,0.01 1.35999,-0.3915 1.46988,-1.0303 0.0962,-0.5701 -0.2404,-0.8105 -0.92039,-0.9822 -0.39151,-0.096 -0.57697,-0.1786 -0.54949,-0.364 0.0275,-0.1374 0.24727,-0.2541 0.53575,-0.2541 0.0412,0 0.0756,0 0.11677,0.01 0.32969,0.034 0.52201,0.1717 0.60444,0.2267 0.0137,0.01 0.0275,0.01 0.0412,0.01 0.0206,0 0.0481,-0.014 0.0618,-0.034 l 0.35716,-0.4945 c 0.0275,-0.034 0.0206,-0.076 0,-0.1031 -0.0893,-0.082 -0.44646,-0.3297 -1.00282,-0.3365 -0.72807,-0.01 -1.39433,0.364 -1.49049,1.0097 -0.0893,0.4945 0.17859,0.783 0.79676,0.9616 0.41899,0.1305 0.7006,0.206 0.65939,0.4121 -0.0481,0.2404 -0.49454,0.2541 -0.65252,0.2541 -0.35717,-0.027 -0.61131,-0.1786 -0.73494,-0.261 -0.0137,-0.01 -0.0275,-0.014 -0.0412,-0.014 -0.0206,0 -0.0412,0.014 -0.0618,0.034 l -0.36404,0.5152 c -0.0275,0.034 -0.0275,0.076 0,0.096 z"
                     style="font-style:italic;font-weight:bold;font-size:6.86863px;font-family:'Ageo Personal Use';-inkscape-font-specification:'Ageo Personal Use Bold Italic';fill:#3e3e3e;stroke-width:1.00023172;stroke-miterlimit:4;stroke-dasharray:none;fill-opacity:1"
                     id="path90077" />
                  <path
                     d="m 131.00273,1000.1537 c 0.0137,-0.041 -0.0137,-0.069 -0.055,-0.069 h -0.64565 c -0.0412,0 -0.0687,0.027 -0.0824,0.069 l -0.95474,4.8217 c -0.007,0.041 0.0137,0.069 0.0481,0.069 h 0.65252 c 0.0343,0 0.0687,-0.027 0.0755,-0.069 z"
                     style="font-style:italic;font-weight:bold;font-size:6.86863px;font-family:'Ageo Personal Use';-inkscape-font-specification:'Ageo Personal Use Bold Italic';fill:#3e3e3e;stroke-width:1.00023172;stroke-miterlimit:4;stroke-dasharray:none;fill-opacity:1"
                     id="path90074" />
                  <path
                     d="m 133.86007,1002.2555 c -0.16485,-0.316 -0.47393,-0.4946 -0.92726,-0.4946 -0.96848,0 -1.75837,0.6731 -1.95756,1.676 -0.19919,0.9959 0.31595,1.6896 1.28443,1.6828 0.45333,0 0.83797,-0.1855 1.13332,-0.5083 l 0.0206,0.364 c 0.007,0.041 0.0206,0.069 0.0618,0.069 h 0.52888 c 0.0412,0 0.0756,-0.034 0.0824,-0.069 l 0.61817,-3.0908 c 0.007,-0.041 -0.0137,-0.069 -0.055,-0.069 h -0.52201 c -0.0412,0 -0.0687,0.027 -0.0893,0.069 z m -2.10867,1.1814 c 0.1099,-0.5427 0.53575,-0.8998 1.07151,-0.8998 0.54262,0 0.84484,0.3571 0.74181,0.8998 -0.11677,0.5426 -0.56323,0.9066 -1.10585,0.9066 -0.52888,0 -0.81737,-0.3709 -0.70747,-0.9066 z"
                     style="font-style:italic;font-weight:bold;font-size:6.86863px;font-family:'Ageo Personal Use';-inkscape-font-specification:'Ageo Personal Use Bold Italic';fill:#3e3e3e;stroke-width:1.00023172;stroke-miterlimit:4;stroke-dasharray:none;fill-opacity:1"
                     id="path90071" />
                  <path
                     d="m 136.29844,1005.1197 c 0.45333,0 0.83797,-0.1923 1.13332,-0.5152 l 0.0275,0.3778 c 0.007,0.034 0.0275,0.062 0.0687,0.062 h 0.4602 c 0.0412,0 0.0755,-0.021 0.0824,-0.069 l 0.96848,-4.8286 c 0.007,-0.041 -0.0137,-0.069 -0.0549,-0.069 h -0.64565 c -0.0343,0 -0.0687,0.028 -0.0756,0.069 l -0.41211,2.0468 c -0.16485,-0.2747 -0.4602,-0.4327 -0.87919,-0.4327 -0.97534,0 -1.75837,0.6731 -1.95756,1.676 -0.19919,0.9959 0.30909,1.6828 1.28444,1.6828 z m 1.29817,-1.6828 c -0.1099,0.5495 -0.56323,0.9066 -1.09898,0.9066 -0.52889,0 -0.81737,-0.3709 -0.70747,-0.9066 0.10989,-0.5427 0.53575,-0.9067 1.0715,-0.9067 0.54262,0 0.84484,0.364 0.73495,0.9067 z"
                     style="font-style:italic;font-weight:bold;font-size:6.86863px;font-family:'Ageo Personal Use';-inkscape-font-specification:'Ageo Personal Use Bold Italic';fill:#3e3e3e;stroke-width:1.00023172;stroke-miterlimit:4;stroke-dasharray:none;fill-opacity:1"
                     id="path90068" />
                  <path
                     d="m 140.22042,1002.0837 c 0.007,-0.041 -0.0137,-0.082 -0.0549,-0.082 h -0.60444 c -0.0343,0 -0.0893,0.041 -0.0962,0.082 l -0.57009,2.8849 c -0.007,0.034 0.0275,0.075 0.0618,0.075 h 0.59757 c 0.0412,0 0.0824,-0.041 0.0893,-0.075 z"
                     style="font-style:italic;font-weight:bold;font-size:6.86863px;font-family:'Ageo Personal Use';-inkscape-font-specification:'Ageo Personal Use Bold Italic';fill:#3e3e3e;stroke-width:1.00023172;stroke-miterlimit:4;stroke-dasharray:none;fill-opacity:1"
                     id="path90065" />
                  <path
                     d="m 100.93186,1005.8227 c -0.0618,0.3022 0.10303,0.5082 0.40525,0.5082 0.30909,0 0.54262,-0.206 0.60444,-0.5082 0.0618,-0.3023 -0.0962,-0.5015 -0.40525,-0.5015 -0.30222,0 -0.54262,0.1992 -0.60444,0.5015 z"
                     style="font-style:italic;font-weight:bold;font-size:6.86863px;font-family:'Ageo Personal Use';-inkscape-font-specification:'Ageo Personal Use Bold Italic';fill:#3e3e3e;stroke-width:1.00023172;stroke-miterlimit:4;stroke-dasharray:none;fill-opacity:1"
                     id="path105584"
                     sodipodi:nodetypes="sssss" />
                  <path
                     d="m 126.35522,1005.8079 c -0.0618,0.3022 0.10303,0.5082 0.40525,0.5082 0.30909,0 0.54262,-0.206 0.60444,-0.5082 0.0618,-0.3023 -0.0962,-0.5015 -0.40525,-0.5015 -0.30222,0 -0.54262,0.1992 -0.60444,0.5015 z"
                     style="font-style:italic;font-weight:bold;font-size:6.86863px;font-family:'Ageo Personal Use';-inkscape-font-specification:'Ageo Personal Use Bold Italic';fill:#3e3e3e;stroke-width:1.00023172;stroke-miterlimit:4;stroke-dasharray:none;fill-opacity:1"
                     id="path105723"
                     sodipodi:nodetypes="sssss" />
                </g>
              </g>
            </g>
          </g>
        </g>
        <g
           id="g73510"
           transform="translate(-196.40718,-14.660311)">
          <g
             id="g73508"
             transform="translate(2.4365)" />
        </g>
        <g
           id="g75399"
           transform="translate(198.29131,-14.660311)">
          <g
             id="g75397"
             transform="translate(2.4365)" />
        </g>
      </g>
    </g>
  </g>
  <metadata
     id="metadata1220">
    <rdf:RDF>
      <cc:Work
         rdf:about="">
        <dc:publisher>
          <cc:Agent>
            <dc:title>ilker beşken</dc:title>
          </cc:Agent>
        </dc:publisher>
      </cc:Work>
    </rdf:RDF>
  </metadata>
</svg>
