<?xml version="1.0" encoding="UTF-8" standalone="no"?>
<!-- Created with Inkscape (http://www.inkscape.org/) -->

<svg
   width="1000"
   height="1000"
   viewBox="0 0 264.58333 264.58334"
   version="1.1"
   id="svg369542"
   inkscape:version="1.1.1 (3bf5ae0d25, 2021-09-20)"
   sodipodi:docname="pisi-pembe.svg"
   xmlns:inkscape="http://www.inkscape.org/namespaces/inkscape"
   xmlns:sodipodi="http://sodipodi.sourceforge.net/DTD/sodipodi-0.dtd"
   xmlns="http://www.w3.org/2000/svg"
   xmlns:svg="http://www.w3.org/2000/svg">
  <sodipodi:namedview
     id="namedview369544"
     pagecolor="#ffffff"
     bordercolor="#666666"
     borderopacity="1.0"
     inkscape:pageshadow="2"
     inkscape:pageopacity="0.0"
     inkscape:pagecheckerboard="0"
     inkscape:document-units="mm"
     showgrid="false"
     units="px"
     inkscape:zoom="0.39685476"
     inkscape:cx="156.22844"
     inkscape:cy="624.91376"
     inkscape:window-width="1920"
     inkscape:window-height="995"
     inkscape:window-x="0"
     inkscape:window-y="20"
     inkscape:window-maximized="1"
     inkscape:current-layer="g342499" />
  <defs
     id="defs369539" />
  <g
     inkscape:label="Katman 1"
     inkscape:groupmode="layer"
     id="layer1">
    <g
       id="g342501"
       transform="matrix(0.71615617,0,0,0.71615617,-0.5018178,2.5057979)"
       style="fill:#1f549e;fill-opacity:1">
      <g
         id="g342401"
         transform="matrix(0.7936967,0,0,0.7936967,363.80533,-3.536509)"
         style="fill:#1f549e;fill-opacity:1" />
      <g
         id="g342499"
         transform="matrix(1.709902,0,0,1.7325968,79.788353,-1421.9892)"
         style="fill:#1f549e;fill-opacity:1">
        <g
           inkscape:export-ydpi="598.79999"
           inkscape:export-xdpi="598.79999"
           inkscape:export-filename="D:\Dropbox\PiSiLinux\logo\g4295-7-3.png"
           transform="translate(4.4166628,858.48748)"
           id="g342403"
           style="fill:#1f549e;fill-opacity:1" />
        <g
           inkscape:export-ydpi="598.79999"
           inkscape:export-xdpi="598.79999"
           inkscape:export-filename="D:\Dropbox\PiSiLinux\logo\g4295-7-3.png"
           transform="translate(3.8787028,858.0599)"
           id="g342495"
           style="fill:#1f549e;fill-opacity:1">
          <g
             id="g342475"
             style="fill:#1f549e;fill-opacity:1">
            <g
               id="g342465"
               style="fill:#1f549e;fill-opacity:1">
              <linearGradient
                 y2="103.7656"
                 x2="46.650902"
                 y1="103.7656"
                 x1="16.9111"
                 gradientUnits="userSpaceOnUse"
                 id="linearGradient342463">
                <stop
                   id="stop342459"
                   style="stop-color:#EC008C"
                   offset="0" />
                <stop
                   id="stop342461"
                   style="stop-color:#C4008C"
                   offset="1" />
              </linearGradient>
            </g>
            <g
               id="g342473"
               style="fill:#1f549e;fill-opacity:1">
              <linearGradient
                 y2="104.6143"
                 x2="53.023399"
                 y1="104.6143"
                 x1="23.283199"
                 gradientUnits="userSpaceOnUse"
                 id="linearGradient342471">
                <stop
                   id="stop342467"
                   style="stop-color:#EC008C"
                   offset="0" />
                <stop
                   id="stop342469"
                   style="stop-color:#C4008C"
                   offset="1" />
              </linearGradient>
            </g>
          </g>
          <g
             id="g342493"
             style="fill:#1f549e;fill-opacity:1">
            <g
               id="g342483"
               style="fill:#1f549e;fill-opacity:1">
              <linearGradient
                 y2="103.7656"
                 x2="111.0859"
                 y1="103.7656"
                 x1="81.346703"
                 gradientUnits="userSpaceOnUse"
                 id="linearGradient342481">
                <stop
                   id="stop342477"
                   style="stop-color:#EC008C"
                   offset="0" />
                <stop
                   id="stop342479"
                   style="stop-color:#C4008C"
                   offset="1" />
              </linearGradient>
            </g>
            <g
               id="g342491"
               style="fill:#1f549e;fill-opacity:1">
              <linearGradient
                 y2="104.6133"
                 x2="104.7119"
                 y1="104.6133"
                 x1="74.973602"
                 gradientUnits="userSpaceOnUse"
                 id="linearGradient342489">
                <stop
                   id="stop342485"
                   style="stop-color:#EC008C"
                   offset="0" />
                <stop
                   id="stop342487"
                   style="stop-color:#C4008C"
                   offset="1" />
              </linearGradient>
            </g>
          </g>
        </g>
        <g
           inkscape:export-ydpi="598.79999"
           inkscape:export-xdpi="598.79999"
           inkscape:export-filename="D:\Dropbox\PiSiLinux\logo\g4295-7-3.png"
           style="fill:#1f549e;fill-opacity:1"
           transform="translate(-30.549898,-35.03055)"
           id="g342497" />
        <path
           id="path342380"
           style="color:#000000;fill:#ed1d47;fill-opacity:1;stroke-width:1.6;-inkscape-stroke:none"
           d="m -14.854286,840.20286 -0.44842,1.74773 c 0,0 -2.865425,11.15849 -3.870311,25.4296 -0.985418,13.99478 -0.28358,31.08209 7.001681,43.97667 -5.26699,10.0717 -9.443684,20.10332 -12.280411,29.02857 l -0.194532,0.60586 0.194532,0.60587 c 2.470281,7.77018 5.971261,15.07291 10.314931,21.77577 1.27663,1.97001 2.64751,3.87195 4.06737,5.73318 2.7142801,3.55799 5.6843801,6.90637 8.8774701,10.02647 3.45134,3.37253 7.16306,6.47833 11.1208,9.26107 l -20.4833201,15.92175 -2.92168,2.2725 c -0.5248,0.4128 -0.67748,1.2468 -0.33348,1.8837 0.3408,0.6272 1.04025,0.8022 1.56505,0.3926 l 24.39407,-18.96339 c 1.41494,0.93354 2.85005,1.83816 4.31872,2.69267 l -19.7519599,15.35332 c -0.5264,0.4047 -0.67334,1.2453 -0.33094,1.8774 0.33758,0.632 1.04312,0.8112 1.56631,0.4063 L 18.893474,993.94482 c 2.2872,1.23822 4.63739,2.37658 7.03702,3.41817 5.94843,2.5821 12.22726,4.53691 18.75282,5.79431 1.67074,0.3219 3.36226,0.5838 5.06398,0.8128 3.93547,0.5293 7.94535,0.8202 12.02525,0.8202 15.31393,0 29.73791,-3.8255 42.383956,-10.5675 l 6.3562,4.94409 14.22564,11.06361 c 0.52323,0.4049 1.21913,0.221 1.56631,-0.4063 0.33923,-0.6321 0.18768,-1.4727 -0.33219,-1.8774 l -14.52629,-11.2906 -4.85685,-3.77599 c 1.47783,-0.8473 2.92366,-1.74327 4.34779,-2.67025 l 2.25347,1.75272 21.74398,16.90152 c 0.5264,0.4096 1.2287,0.2347 1.56631,-0.3926 0.34078,-0.6368 0.19217,-1.4709 -0.33096,-1.8837 l -22.04585,-17.13587 -0.94862,-0.73801 c 0.5662,-0.39296 1.11687,-0.80621 1.67367,-1.2117 15.44732,-11.24966 27.23181,-27.26034 33.16289,-45.90516 l 0.19336,-0.60587 -0.19336,-0.60586 c -2.02578,-6.37021 -4.75003,-13.30657 -8.0564,-20.41698 -1.14675,-2.46608 -2.36132,-4.95276 -3.6442,-7.44476 7.74085,-12.91619 8.54322,-30.36132 7.57386,-44.64111 -0.97637,-14.38345 -3.85893,-25.66272 -3.85893,-25.66272 l -0.44717,-1.7515 -1.78736,0.2667 c -12.92322,1.93152 -23.20079,5.85588 -31.36417,10.76946 -2.61961,1.57678 -5.02445,3.2536 -7.225236,5.00139 -1.59765,1.26881 -3.10259,2.57025 -4.49431,3.8994 -4.73254,-3.41329 -9.6771,-6.21656 -14.79786,-8.24632 -5.83113,-2.31133 -11.89178,-3.61642 -18.13768,-3.61642 -5.27112,0 -10.40763,0.9333 -15.38775,2.61416 l -0.54444,0.16074 c -0.006,0.012 -0.009,0.0269 -0.015,0.0398 -5.17204,1.80822 -10.17472,4.4143 -14.96842,7.65794 -0.14457,0.0979 -0.28974,0.19606 -0.4345,0.29423 -0.25802,0.17481 -0.51568,0.34971 -0.77181,0.52984 -1.25277,-1.17961 -2.59243,-2.33611 -4.00799,-3.46807 -9.06349,-7.24781 -21.5514899,-13.33824 -38.7132,-15.90304 z m 92.36071,15.36197 c 0.33112,0.12452 0.65903,0.2685 0.98907,0.40014 5.91538,2.36009 11.64444,5.86666 17.11323,10.20852 1.37953,1.09523 2.74018,2.25195 4.08504,3.44937 4.643196,4.13413 9.074436,8.84353 13.230296,13.96203 10.33523,12.72929 18.9191,27.75302 25.04333,41.73029 2.3831,5.43892 4.40583,10.72524 5.9962,15.64744 -5.04965,15.4832 -14.31927,29.03901 -26.43282,39.32431 -2.45073,2.08091 -5.00804,4.03964 -7.68123,5.84038 L 90.851664,971.35997 c -0.5184,-0.40801 -1.22103,-0.23167 -1.56505,0.39392 -0.34398,0.63202 -0.19007,1.47525 0.33474,1.88488 l 17.967146,13.96828 c -1.45023,0.91235 -2.93614,1.77006 -4.44253,2.59668 L 80.655484,972.72127 c -0.5184,-0.416 -1.22233,-0.23975 -1.56631,0.38272 -0.34402,0.6352 -0.19007,1.47439 0.33473,1.88237 l 21.247546,16.52506 c -11.688046,5.92707 -24.896316,9.27978 -38.898906,9.27978 -3.59002,0 -7.12101,-0.2413 -10.59408,-0.6694 -1.70882,-0.21081 -3.40788,-0.45101 -5.08419,-0.76051 -6.54406,-1.2081 -12.82971,-3.15761 -18.768,-5.75432 -1.68388,-0.73634 -3.34313,-1.51866 -4.96925,-2.35734 l 8.2219,-6.39386 12.68966,-9.86693 c 0.5248,-0.40798 0.67719,-1.24842 0.33473,-1.88362 -0.34398,-0.624 -1.04243,-0.79995 -1.56882,-0.38395 l -9.76675,7.59185 -12.36755,9.61263 c -1.49546,-0.83377 -2.9641,-1.70676 -4.40338,-2.62539 l 17.57303,-13.66159 c 0.5264,-0.40963 0.67714,-1.25286 0.33474,-1.88488 -0.3392,-0.62559 -1.04057,-0.80193 -1.56377,-0.39392 l -18.60378,14.46068 C 8.5871041,982.64427 4.2808841,979.008 0.34401411,975.00255 -2.8267959,971.77654 -5.7627559,968.31574 -8.4046159,964.62578 c -1.39761,-1.95211 -2.7181801,-3.9631 -3.9549301,-6.0311 -3.29718,-5.51331 -6.018044,-11.41328 -8.045045,-17.63206 5.674265,-17.57127 16.6819051,-39.69509 31.038275,-57.37773 2.68602,-3.30836 5.48492,-6.45187 8.38104,-9.38325 0.87739,-0.88807 1.7648,-1.75345 2.6602,-2.59916 -0.0509,0.12631 -0.10057,0.25742 -0.15146,0.38394 -6.6e-4,0.002 -0.002,0.003 -0.003,0.006 -0.002,0.003 -0.003,0.009 -0.006,0.012 -0.009,0.0239 -0.018,0.0458 -0.0269,0.0685 -0.58353,1.45148 -1.16521,2.87774 -1.74821,4.34817 0,0 0,10e-4 0,10e-4 -0.32058,0.80857 -0.63418,1.63623 -0.95368,2.44959 -0.24545,0.62499 -0.4856,1.25121 -0.73011,1.87863 -0.66427,1.70417 -1.33503,3.39701 -1.98821,5.11484 -0.0269,0.0706 -0.0527,0.14128 -0.0796,0.21192 -1.17824,3.1023 -2.33501,6.22124 -3.44967,9.33835 -0.57006,1.59418 -1.12953,3.18758 -1.67622,4.77828 0,0 0,10e-4 0,10e-4 -0.54654,1.59031 -1.0805599,3.1777 -1.5991499,4.75957 -1.55607,4.74673 -2.97571,9.44452 -4.19746,14.02561 -1.62908,6.108 -2.90657,12.0086 -3.68464,17.54354 -0.19456,1.38375 -0.35772,2.74467 -0.48756999,4.08017 1.47671999,-1.58182 2.96130999,-3.14846 4.45641999,-4.69474 1.58902,-1.64345 3.19194,-3.26106 4.8100899,-4.84805 0.006,-0.006 0.012,-0.012 0.021,-0.021 0.5806,-0.57024 1.1694,-1.12396 1.75452,-1.68541 0.30058,-0.28855 0.60006,-0.57922 0.9019,-0.86514 0.0667,-0.0634 0.1326,-0.12871 0.19965,-0.19187 0.64076,-0.60427 1.28443,-1.204 1.93137,-1.79637 0.14038,-0.12871 0.28376,-0.25203 0.42441,-0.3802 0.75125,-0.68399 1.50554,-1.36232 2.2661,-2.02823 0.51239,-0.44842 1.0242,-0.89914 1.54105,-1.33888 l 5.26734,-4.25467 c 0.0443,-0.0338 0.0883,-0.0674 0.13261,-0.10087 4.7e-4,-3.6e-4 6.5e-4,-6.6e-4 0.001,-10e-4 6.3e-4,-5.7e-4 0.002,-6.3e-4 0.003,-10e-4 2.12745,-1.61489 4.29837,-3.14432 6.52167,-4.57381 0.16822,-0.10805 0.33898,-0.21102 0.5078,-0.31788 0.87861,-0.55681 1.76713,-1.09553 2.66271,-1.61935 0.009,-0.006 0.018,-0.012 0.0269,-0.015 0.0314,-0.018 0.0632,-0.0365 0.0949,-0.0548 0.23197,-0.135 0.46293,-0.27119 0.69599,-0.40391 6.6e-4,-4.5e-4 0.002,-6.3e-4 0.003,-0.001 1.07398,-0.61188 2.15613,-1.20703 3.25642,-1.7677 -0.67674,1.34885 -1.35483,2.73461 -2.0337,4.1001 -0.77744,1.56383 -1.55398,3.11412 -2.32926,4.69474 -0.006,0.009 -0.009,0.021 -0.015,0.0311 -0.54738,1.11612 -1.08167,2.24243 -1.6257,3.36463 -0.0209,0.0419 -0.0404,0.0841 -0.0605,0.12601 -0.91432,1.88692 -1.82957,3.76908 -2.72715,5.66584 -0.006,0.009 -0.009,0.018 -0.012,0.0269 -0.55656,1.17629 -1.08843,2.34941 -1.63578,3.52665 -0.018,0.0371 -0.0344,0.0739 -0.0518,0.11105 -0.85185,1.83316 -1.70346,3.66258 -2.52631,5.4913 -0.57826,1.28519 -1.12193,2.55502 -1.68254,3.8346 -0.84966,1.93933 -1.70247,3.8795 -2.50355,5.79796 -0.006,0.012 -0.012,0.0269 -0.015,0.0386 -0.21581,0.51708 -0.43234,1.03315 -0.64421,1.54829 -0.33569,0.81617 -0.66396,1.62776 -0.98906,2.43836 -0.16074,0.40095 -0.33075,0.80728 -0.48883,1.2067 -0.10775,0.27239 -0.20563,0.53876 -0.31201,0.8103 -6.3e-4,0.002 -0.002,0.003 -0.003,0.006 -0.30372,0.77483 -0.59787,1.54407 -0.89052,2.31247 -0.009,0.0209 -0.015,0.0422 -0.0239,0.0634 -0.25382,0.66732 -0.50897,1.33389 -0.75409,1.99582 -0.29723,0.80303 -0.58036,1.59782 -0.864,2.39226 -0.006,0.018 -0.015,0.0374 -0.0209,0.056 -0.0778,0.21821 -0.16074,0.43956 -0.23737,0.65696 -0.0805,0.22838 -0.17061,0.46189 -0.25023,0.68937 0,0 0,10e-4 0,10e-4 -0.0572,0.16403 -0.10626,0.32261 -0.16283,0.48616 -0.29544,0.8544 -0.57249,1.69679 -0.85012,2.53936 -0.003,0.012 -0.009,0.024 -0.012,0.0374 -0.1799,0.54635 -0.36605,1.09696 -0.5381,1.63802 -10e-4,0.003 -0.003,0.006 -0.003,0.012 -0.27508,0.86484 -0.52798,1.71399 -0.7819,2.56429 -0.006,0.015 -0.009,0.0299 -0.012,0.0437 -0.14996,0.50245 -0.30998,1.01136 -0.45222,1.50842 -0.25982,0.90788 -0.49185,1.79643 -0.72506,2.68519 -0.10327,0.39331 -0.223,0.79866 -0.32085,1.18802 0,0 0,10e-4 0,10e-4 -0.009,0.0416 -0.018,0.0808 -0.0269,0.12212 -6.2e-4,0.003 -0.002,0.006 -0.003,0.009 -0.26879,1.07622 -0.5058,2.12976 -0.73137,3.17387 -0.009,0.0449 -0.0209,0.091 -0.0314,0.13589 -0.018,0.0826 -0.0407,0.16942 -0.0581,0.25173 -0.018,0.0892 -0.0446,0.18289 -0.0632,0.27179 -10e-4,0.006 -10e-4,0.012 -0.003,0.018 -4.5e-4,0.002 -6.6e-4,0.003 -10e-4,0.006 -6.6e-4,0.003 -0.003,0.009 -0.003,0.015 h 10e-4 c -0.267,1.28336 -0.50057,2.54094 -0.696,3.76977 0.10118,-0.17092 0.20564,-0.33902 0.30696,-0.50988 0.012,-0.018 0.021,-0.0356 0.0314,-0.0536 0.8535,-1.43874 1.71963,-2.86446 2.58064,-4.29583 1.52967,-2.54286 3.07311,-5.07168 4.63074,-7.58685 0.54297,-0.8772 1.08523,-1.75566 1.63198,-2.62913 0.94488,-1.50865 1.89649,-3.01121 2.85347,-4.50771 0.47703,-0.74649 0.95975,-1.48696 1.43999,-2.23022 0.79734,-1.23316 1.5934,-2.46743 2.40002,-3.69119 0.009,-0.012 0.015,-0.0239 0.024,-0.0362 0.0551,-0.0835 0.11045,-0.16702 0.16552,-0.25053 0.006,-0.012 0.015,-0.0209 0.021,-0.0311 0.80662,-1.2217 1.62393,-2.43223 2.44043,-3.64384 0.49745,-0.73861 0.99427,-1.4781 1.49558,-2.21276 1.00223,-1.46792 2.01191,-2.92911 3.03031,-4.38057 0.51301,-0.7314 1.03381,-1.4546 1.55116,-2.18157 1.65494,-2.32498 3.33305,-4.62568 5.03492,-6.90247 1.65371,-2.21184 3.31455,-4.417 5.01726,-6.57836 1.05701,-1.34224 2.12491,-2.6728 3.20209,-3.99414 0.56271,-0.69001 1.1217,-1.38408 1.69011,-2.06813 1.31464,-1.58265 2.65008,-3.1439 3.99663,-4.69351 0.62765,-0.72206 1.25863,-1.44077 1.89347,-2.15538 1.4041,-1.58092 2.82108,-3.14816 4.26191,-4.691 0.006,-0.006 0.015,-0.015 0.021,-0.021 6.4618,-6.91678 13.30108,-13.44097 20.60836,-19.47704 0.0299,-0.024 0.0572,-0.0473 0.0859,-0.0709 1.99611,-1.64701 4.02703,-3.25714 6.09471,-4.82938 v -10e-4 c 4.10232,-3.11927 8.34181,-6.09555 12.74653,-8.89832 -1.62809,-0.0668 -3.25157,-0.12332 -4.872,-0.15954 -1.49944,-0.0335 -2.9963,-0.044 -4.49305,-0.0335 -0.003,0 -0.006,-3e-5 -0.009,0 -0.34306,0.003 -0.68641,0.015 -1.02947,0.018 -0.006,9e-5 -0.012,-9e-5 -0.015,0 -1.17917,0.018 -2.3592,0.0524 -3.53935,0.10985 -0.38798,0.018 -0.77642,0.0413 -1.16464,0.0649 -1.21101,0.0739 -2.42331,0.17601 -3.63788,0.30292 -2.0543,0.21402 -4.11498,0.50146 -6.18694,0.9013 -0.15385,0.0299 -0.30824,0.0638 -0.4623,0.0949 -0.68785,0.13769 -1.37726,0.28465 -2.0678,0.44629 -0.22629,0.053 -0.45297,0.11015 -0.67959,0.16583 -0.61227,0.15056 -1.22565,0.30911 -1.8404,0.47996 -0.0811,0.0239 -0.16164,0.0431 -0.24246,0.0662 -0.0964,0.0269 -0.19396,0.0596 -0.29064,0.0874 -0.59087,0.16972 -1.18255,0.34614 -1.77599,0.53606 -3.9e-4,9e-5 -6.6e-4,-1.2e-4 -10e-4,0 -0.24035,0.0766 -0.48176,0.16044 -0.72254,0.24066 -0.012,0.003 -0.0239,0.009 -0.0341,0.012 -0.50326,0.16822 -1.00672,0.3351 -1.51201,0.51861 -0.38853,0.14039 -0.77861,0.29514 -1.16842,0.44504 -0.39394,0.15206 -0.78699,0.29693 -1.1823,0.45874 -0.79223,0.32361 -1.58804,0.66535 -2.38611,1.03094 0.26281,-0.91112 0.53876,-1.81663 0.82988,-2.71635 0.29125,-0.9001 0.59761,-1.79478 0.92211,-2.68147 0.64911,-1.77338 1.3695,-3.518 2.18148,-5.22577 0.81186,-1.70774 1.71528,-3.37783 2.72967,-5.00391 1.01447,-1.62612 2.13999,-3.20745 3.39662,-4.73587 z m -15.29178,110.15298 c -1.42335,0 -2.82476,0.056 -4.20124,0.15834 -3.89832,0.28945 -7.58813,0.97227 -10.94399,1.98214 0.21282,0.43519 0.50317,0.89339 0.90315,1.36378 l 6.08717,7.28893 3.65052,4.36937 0.41303,0.49491 c 0.92193,1.10116 2.08424,1.74985 3.28926,1.9472 v 7.74394 h 1.60169 v -7.7452 c 1.19949,-0.20025 2.35407,-0.84921 3.27031,-1.94594 l 10.16335,-12.15321 c 0.39361,-0.47679 0.70021,-0.92701 0.90821,-1.36378 -4.23204,-1.27172 -8.98015,-2.02141 -14.01471,-2.12051 -0.37493,-0.009 -0.7487,-0.021 -1.12675,-0.021 z" />
      </g>
    </g>
  </g>
</svg>
