<?xml version="1.0" encoding="UTF-8" standalone="no"?>
<!-- Created with Inkscape (http://www.inkscape.org/) -->

<svg
   width="1000"
   height="1000"
   viewBox="0 0 264.58333 264.58334"
   version="1.1"
   id="svg369542"
   inkscape:version="1.1.1 (3bf5ae0d25, 2021-09-20)"
   sodipodi:docname="pisi-mavi.svg"
   xmlns:inkscape="http://www.inkscape.org/namespaces/inkscape"
   xmlns:sodipodi="http://sodipodi.sourceforge.net/DTD/sodipodi-0.dtd"
   xmlns="http://www.w3.org/2000/svg"
   xmlns:svg="http://www.w3.org/2000/svg">
  <sodipodi:namedview
     id="namedview369544"
     pagecolor="#ffffff"
     bordercolor="#666666"
     borderopacity="1.0"
     inkscape:pageshadow="2"
     inkscape:pageopacity="0.0"
     inkscape:pagecheckerboard="0"
     inkscape:document-units="mm"
     showgrid="false"
     units="px"
     inkscape:zoom="0.19842738"
     inkscape:cx="-881.93476"
     inkscape:cy="720.66669"
     inkscape:window-width="1920"
     inkscape:window-height="995"
     inkscape:window-x="0"
     inkscape:window-y="20"
     inkscape:window-maximized="1"
     inkscape:current-layer="g342499" />
  <defs
     id="defs369539" />
  <g
     inkscape:label="Katman 1"
     inkscape:groupmode="layer"
     id="layer1">
    <g
       id="g342501"
       transform="matrix(0.71615617,0,0,0.71615617,-0.5018178,2.5057979)"
       style="fill:#1f549e;fill-opacity:1">
      <g
         id="g342401"
         transform="matrix(0.7936967,0,0,0.7936967,363.80533,-3.536509)"
         style="fill:#1f549e;fill-opacity:1" />
      <g
         id="g342499"
         transform="matrix(1.709902,0,0,1.7325968,79.788353,-1421.9892)"
         style="fill:#1f549e;fill-opacity:1">
        <g
           inkscape:export-ydpi="598.79999"
           inkscape:export-xdpi="598.79999"
           inkscape:export-filename="D:\Dropbox\PiSiLinux\logo\g4295-7-3.png"
           transform="translate(4.4166628,858.48748)"
           id="g342403"
           style="fill:#1f549e;fill-opacity:1" />
        <g
           inkscape:export-ydpi="598.79999"
           inkscape:export-xdpi="598.79999"
           inkscape:export-filename="D:\Dropbox\PiSiLinux\logo\g4295-7-3.png"
           transform="translate(3.8787028,858.0599)"
           id="g342495"
           style="fill:#1f549e;fill-opacity:1">
          <g
             id="g342475"
             style="fill:#1f549e;fill-opacity:1">
            <g
               id="g342465"
               style="fill:#1f549e;fill-opacity:1">
              <linearGradient
                 y2="103.7656"
                 x2="46.650902"
                 y1="103.7656"
                 x1="16.9111"
                 gradientUnits="userSpaceOnUse"
                 id="linearGradient342463">
                <stop
                   id="stop342459"
                   style="stop-color:#EC008C"
                   offset="0" />
                <stop
                   id="stop342461"
                   style="stop-color:#C4008C"
                   offset="1" />
              </linearGradient>
            </g>
            <g
               id="g342473"
               style="fill:#1f549e;fill-opacity:1">
              <linearGradient
                 y2="104.6143"
                 x2="53.023399"
                 y1="104.6143"
                 x1="23.283199"
                 gradientUnits="userSpaceOnUse"
                 id="linearGradient342471">
                <stop
                   id="stop342467"
                   style="stop-color:#EC008C"
                   offset="0" />
                <stop
                   id="stop342469"
                   style="stop-color:#C4008C"
                   offset="1" />
              </linearGradient>
            </g>
          </g>
          <g
             id="g342493"
             style="fill:#1f549e;fill-opacity:1">
            <g
               id="g342483"
               style="fill:#1f549e;fill-opacity:1">
              <linearGradient
                 y2="103.7656"
                 x2="111.0859"
                 y1="103.7656"
                 x1="81.346703"
                 gradientUnits="userSpaceOnUse"
                 id="linearGradient342481">
                <stop
                   id="stop342477"
                   style="stop-color:#EC008C"
                   offset="0" />
                <stop
                   id="stop342479"
                   style="stop-color:#C4008C"
                   offset="1" />
              </linearGradient>
            </g>
            <g
               id="g342491"
               style="fill:#1f549e;fill-opacity:1">
              <linearGradient
                 y2="104.6133"
                 x2="104.7119"
                 y1="104.6133"
                 x1="74.973602"
                 gradientUnits="userSpaceOnUse"
                 id="linearGradient342489">
                <stop
                   id="stop342485"
                   style="stop-color:#EC008C"
                   offset="0" />
                <stop
                   id="stop342487"
                   style="stop-color:#C4008C"
                   offset="1" />
              </linearGradient>
            </g>
          </g>
        </g>
        <g
           inkscape:export-ydpi="598.79999"
           inkscape:export-xdpi="598.79999"
           inkscape:export-filename="D:\Dropbox\PiSiLinux\logo\g4295-7-3.png"
           style="fill:#1f549e;fill-opacity:1"
           transform="translate(-30.549898,-35.03055)"
           id="g342497" />
        <path
           id="path342405"
           style="color:#000000;fill:#1f549e;fill-opacity:1;stroke-width:1.59999;-inkscape-stroke:none"
           d="m -14.853094,840.20345 -0.448416,1.74771 c 0,0 -2.865405,11.15842 -3.87029,25.42944 -0.985405,13.99467 -0.283579,31.08187 7.001632,43.97635 -5.266949,10.07163 -9.443619,20.10318 -12.280323,29.02837 l -0.195787,0.60587 0.195787,0.60586 c 2.470261,7.77012 5.971218,15.07281 10.314862,21.77561 1.276615,1.97 2.646218,3.87192 4.06607,5.73315 2.7142551,3.55797 5.6856181,6.90632 8.8786671,10.0264 3.451347,3.37247 7.163035,6.47827 11.120745,9.26097 l -20.4831941,15.92162 -2.921661,2.2726 c -0.524788,0.4128 -0.67747,1.2468 -0.333473,1.8836 0.340801,0.6272 1.040241,0.8023 1.56504,0.3927 l 24.393898,-18.96332 c 1.41492,0.9335 2.85004,1.8381 4.31871,2.6926 l -19.7518409,15.35322 c -0.526393,0.4048 -0.673345,1.2454 -0.330947,1.8774 0.337602,0.632 1.043109,0.8112 1.566309,0.4064 L 18.894413,993.94438 c 2.28721,1.2382 4.63609,2.3765 7.03574,3.4181 5.94837,2.5821 12.22843,4.53692 18.75394,5.79432 1.67072,0.3218 3.36224,0.5838 5.06396,0.8127 3.93543,0.5294 7.94528,0.8203 12.02514,0.8203 15.31382,0 29.73774,-3.8255 42.383657,-10.56752 l 6.35616,4.9441 14.22555,11.06362 c 0.52322,0.4048 1.21912,0.2209 1.56634,-0.4064 0.33918,-0.632 0.18766,-1.4726 -0.33223,-1.8774 l -14.52619,-11.29052 -4.85681,-3.7759 c 1.47784,-0.8473 2.92363,-1.7433 4.34776,-2.6703 l 2.25345,1.7527 21.74383,16.90152 c 0.5264,0.4096 1.22868,0.2346 1.5663,-0.3927 0.34078,-0.6368 0.19216,-1.4708 -0.33093,-1.8836 l -22.04572,-17.13582 -0.94863,-0.738 c 0.56624,-0.393 1.1169,-0.8062 1.67367,-1.2117 15.44721,-11.24957 27.23036,-27.26015 33.1614,-45.90483 l 0.19456,-0.60586 -0.19456,-0.60587 c -2.02576,-6.37016 -4.74873,-13.30647 -8.05509,-20.41683 -1.14675,-2.46607 -2.36131,-4.95272 -3.64417,-7.44471 7.74083,-12.91609 8.5419,-30.3611 7.57254,-44.6408 -0.97635,-14.38335 -3.85765,-25.66254 -3.85765,-25.66254 l -0.44715,-1.75149 -1.78736,0.26669 c -12.92312,1.93151 -23.20062,5.85584 -31.36392,10.76939 -2.61958,1.57677 -5.02569,3.25359 -7.226477,5.00136 -1.59763,1.2688 -3.10131,2.57023 -4.493,3.89938 -4.73252,-3.41328 -9.67704,-6.21653 -14.79778,-8.24627 -5.83109,-2.31131 -11.89169,-3.6164 -18.13755,-3.6164 -5.27106,0 -10.40755,0.93329 -15.38765,2.61414 l -0.54441,0.16074 c -0.005,0.0112 -0.01,0.0269 -0.016,0.0398 -5.172,1.80822 -10.17466,4.41427 -14.96831,7.65789 -0.1448,0.0979 -0.28977,0.19606 -0.43451,0.29424 -0.25805,0.1748 -0.51566,0.34969 -0.77179,0.52982 -1.25275,-1.1796 -2.59242,-2.3361 -4.00797,-3.46805 -9.06342,-7.2477 -21.5513299,-13.3381 -38.712935,-15.90287 z m 92.360057,15.36187 c 0.33116,0.12448 0.65903,0.2685 0.98906,0.40013 5.91534,2.36008 11.64437,5.86662 17.11312,10.20845 1.37952,1.09523 2.74016,2.25193 4.08502,3.44934 4.643157,4.13411 9.073107,8.84347 13.228947,13.96194 10.33512,12.7292 18.91896,27.75283 25.04315,41.72999 2.38309,5.43888 4.40705,10.72517 5.99742,15.64735 -5.04961,15.48309 -14.31918,29.03881 -26.4326,39.32403 -2.45076,2.08093 -5.00805,4.03963 -7.68122,5.84033 L 90.852123,971.35965 c -0.5184,-0.408 -1.22103,-0.23168 -1.56504,0.39391 -0.34399,0.63203 -0.19007,1.47525 0.33473,1.88488 l 17.967027,13.96814 c -1.45023,0.9124 -2.9361,1.7701 -4.4425,2.5967 L 80.656003,972.72095 c -0.5184,-0.416 -1.22232,-0.23976 -1.5663,0.38272 -0.34402,0.63518 -0.19006,1.47437 0.33474,1.88235 l 21.247387,16.52496 c -11.687967,5.927 -24.896147,9.27972 -38.898637,9.27972 -3.58998,0 -7.12094,-0.2413 -10.594,-0.6694 -1.70882,-0.21082 -3.40784,-0.45102 -5.08418,-0.76052 -6.544,-1.2081 -12.82961,-3.1576 -18.76784,-5.7543 -1.6839,-0.7363 -3.34312,-1.5186 -4.96921,-2.3573 l 8.22182,-6.3938 12.68959,-9.86688 c 0.5248,-0.40798 0.67592,-1.24841 0.33347,-1.88361 -0.34399,-0.624 -1.04117,-0.79994 -1.56757,-0.38394 l -9.76666,7.59179 -12.36747,9.61254 c -1.49545,-0.8337 -2.96533,-1.7067 -4.4046,-2.6253 l 17.57417,-13.66154 c 0.5264,-0.40963 0.67714,-1.25285 0.33474,-1.88488 -0.3392,-0.62559 -1.04058,-0.80191 -1.56378,-0.39391 l -18.60363,14.46053 c -4.6498999,-3.1763 -8.9560899,-6.81254 -12.89294889,-10.81797 -3.17078201,-3.22598 -6.10673001,-6.68676 -8.74856301,-10.3767 -1.397613,-1.9521 -2.7181731,-3.96307 -3.9549101,-6.03106 -3.297154,-5.51328 -6.017998,-11.4132 -8.044982,-17.63193 5.674225,-17.57115 16.6805141,-39.69482 31.036784,-57.37734 2.68601,-3.30834 5.48616,-6.45183 8.38225,-9.38319 0.87739,-0.88806 1.7648,-1.75344 2.66019,-2.59915 -0.0442,0.10992 -0.0885,0.22301 -0.13264,0.33285 -0.60201,1.49689 -1.20225,2.96936 -1.80376,4.48649 0,0 0,10e-4 0,10e-4 -0.33427,0.84314 -0.661,1.70602 -0.9941,2.55427 -0.24269,0.61816 -0.48078,1.23824 -0.72252,1.85871 -0.65313,1.6762 -1.313,3.3394 -1.95535,5.02878 0,0 0,10e-4 0,10e-4 -1.20607,3.17198 -2.38798,6.36225 -3.52797,9.5502 -0.57007,1.59416 -1.12953,3.18756 -1.6762,4.77821 0,0 0,10e-4 0,10e-4 -0.54653,1.5903 -1.0805799,3.17766 -1.5991499,4.7595 -1.03736,3.16448 -2.01486,6.30731 -2.91281,9.40811 -0.89799,3.10076 -1.71723,6.16026 -2.43914,9.15754 -1.44375,5.99465 -2.498216,11.74155 -3.01765599,17.08345 3.04619599,-3.26299 6.12582599,-6.4626 9.26644589,-9.54276 0.007,-0.006 0.0134,-0.0112 0.02,-0.021 0.5806,-0.57024 1.16939,-1.12396 1.75451,-1.68541 0.30057,-0.28855 0.60004,-0.57922 0.90189,-0.86515 0.0669,-0.0635 0.13262,-0.1288 0.19959,-0.19188 0.64077,-0.60427 1.28443,-1.20403 1.93135,-1.79635 0.14045,-0.12864 0.28367,-0.25203 0.42442,-0.38021 0.75124,-0.68398 1.50553,-1.3623 2.26608,-2.02824 0.51238,-0.44838 1.02421,-0.8991 1.54104,-1.33884 l 5.26733,-4.25464 c 0.0442,-0.0338 0.0885,-0.0674 0.13264,-0.1008 4.6e-4,-3.7e-4 6.4e-4,-6.4e-4 0.001,-0.001 6.6e-4,-5.6e-4 0.002,-6.5e-4 0.003,-10e-4 2.13229,-1.61859 4.30818,-3.15148 6.5368,-4.58376 0.14992,-0.0962 0.30179,-0.18886 0.45219,-0.28435 0.89079,-0.56515 1.79239,-1.11054 2.70063,-1.64176 0.2662,-0.15568 0.53177,-0.31251 0.79956,-0.46499 0.005,-0.003 0.01,-0.006 0.016,-0.01 1.07637,-0.61338 2.16119,-1.20949 3.26397,-1.77142 -1.47083,2.93156 -2.94875,5.90923 -4.41976,8.90947 -0.002,0.003 -0.003,0.006 -0.005,0.01 -0.45841,0.93502 -0.90553,1.87921 -1.36166,2.81857 -1.00901,2.07791 -2.01581,4.15383 -3.00503,6.24424 -0.005,0.01 -0.008,0.0179 -0.0128,0.0269 -0.0979,0.20683 -0.20043,0.41127 -0.29809,0.61832 0,0 0,0.001 0,0.001 -0.48299,1.02378 -0.93763,2.04608 -1.41347,3.0704 -0.84175,1.81192 -1.68384,3.62011 -2.49724,5.4277 -0.002,0.006 -0.003,0.01 -0.006,0.0144 -0.57769,1.28396 -1.12118,2.55241 -1.68124,3.83083 -0.84965,1.93931 -1.70247,3.87947 -2.50356,5.79792 -0.005,0.0112 -0.0112,0.0269 -0.0165,0.0386 -0.21585,0.51709 -0.43233,1.03315 -0.6442,1.54829 -0.34173,0.83083 -0.67599,1.65689 -1.00674,2.48195 -10e-4,0.003 -10e-4,0.006 -0.003,0.01 -0.1539,0.38395 -0.31723,0.77304 -0.46863,1.1556 -0.0972,0.24544 -0.18558,0.48557 -0.28166,0.73049 -0.33729,0.85964 -0.66412,1.71258 -0.98779,2.56428 -0.23865,0.62795 -0.47781,1.25542 -0.70862,1.87864 -0.29923,0.80796 -0.58367,1.60788 -0.86904,2.40716 -0.007,0.0179 -0.0134,0.0374 -0.02,0.056 -0.0778,0.21821 -0.16077,0.43956 -0.23749,0.65696 -0.0805,0.22839 -0.17076,0.46189 -0.25011,0.68936 0,0 0,10e-4 0,10e-4 -0.0585,0.16762 -0.10886,0.33006 -0.16672,0.49738 -0.28161,0.81449 -0.54679,1.61716 -0.81221,2.42091 -0.2018,0.61112 -0.40926,1.22553 -0.60126,1.83 -0.26759,0.84249 -0.51274,1.6695 -0.76041,2.49821 -0.15762,0.5274 -0.32446,1.06169 -0.47368,1.58318 -0.24431,0.85381 -0.46255,1.68866 -0.68336,2.5256 -0.13183,0.49965 -0.27604,1.00886 -0.39916,1.50214 -5.2e-4,0.002 -6.5e-4,0.003 -10e-4,0.006 -0.2746,1.10047 -0.51851,2.17807 -0.74778,3.24488 -0.012,0.055 -0.0263,0.11232 -0.0379,0.16703 -0.0128,0.0602 -0.0303,0.12336 -0.043,0.18318 -0.0144,0.0685 -0.0338,0.14096 -0.048,0.20952 0,0 0,10e-4 0,10e-4 -10e-4,0.006 -10e-4,0.01 -0.003,0.0144 -3.6e-4,0.002 -6.5e-4,0.003 -10e-4,0.006 -10e-4,0.006 -0.003,0.0112 -0.004,0.0144 h 10e-4 c -0.0465,0.2236 -0.0769,0.43488 -0.12127,0.65696 -0.21054,1.05256 -0.41459,2.09896 -0.576,3.11402 3e-4,-5e-4 6.5e-4,-7e-4 10e-4,0 0,0 0,0 0,0 0.0349,-0.059 0.0712,-0.1168 0.10611,-0.1757 0.91175,-1.53867 1.83843,-3.06204 2.75871,-4.59243 1.54739,-2.57313 3.10906,-5.13177 4.68501,-7.67659 0.54299,-0.87717 1.08525,-1.75561 1.63199,-2.62907 0.94406,-1.50739 1.89477,-3.0087 2.85091,-4.50398 0.48615,-0.76071 0.97832,-1.51517 1.46778,-2.27255 0.7971,-1.23259 1.59233,-2.46673 2.39872,-3.68993 0.0557,-0.0845 0.11104,-0.16884 0.16672,-0.25293 0.81464,-1.23407 1.64094,-2.45623 2.46566,-3.67999 0.49946,-0.74153 0.99853,-1.48385 1.50189,-2.22145 1.00149,-1.46671 2.00886,-2.92779 3.0265,-4.37805 0.50179,-0.71534 1.01238,-1.42184 1.5183,-2.13294 1.68146,-2.36274 3.38707,-4.70037 5.11702,-7.0134 1.62039,-2.16598 3.24495,-4.32734 4.91237,-6.44492 0.01,-0.0112 0.0186,-0.024 0.0278,-0.035 1.0796,-1.37117 2.17085,-2.73072 3.27155,-4.08013 0.0112,-0.0144 0.0237,-0.0269 0.0354,-0.0422 0.52372,-0.64157 1.04396,-1.28707 1.57263,-1.92352 1.32765,-1.59887 2.67681,-3.17566 4.03701,-4.74083 0.6167,-0.70943 1.23569,-1.41576 1.85936,-2.11799 1.40185,-1.57883 2.8171,-3.14262 4.25555,-4.68347 6.47712,-6.93747 13.33315,-13.48073 20.66004,-19.53299 0.0299,-0.024 0.0571,-0.0474 0.0859,-0.0709 1.99613,-1.64699 4.02701,-3.25712 6.09471,-4.82934 v -10e-4 c 4.10225,-3.11925 8.34171,-6.09552 12.7464,-8.89823 -1.62807,-0.0667 -3.25154,-0.12336 -4.87195,-0.15952 -1.49944,-0.0334 -2.99629,-0.044 -4.49303,-0.0334 -0.003,3e-5 -0.006,-3e-5 -0.01,0 -0.34264,0.003 -0.6856,0.0144 -1.02821,0.0179 -0.006,8e-5 -0.0112,-1.3e-4 -0.021,0 -1.15945,0.0179 -2.31953,0.0526 -3.47995,0.10832 -0.0179,6.3e-4 -0.0386,10e-4 -0.0581,0.003 -0.3875,0.0179 -0.77563,0.0402 -1.16334,0.0635 -1.20136,0.0733 -2.40395,0.17511 -3.60882,0.30043 -0.01,6.6e-4 -0.0144,0.002 -0.024,0.003 -2.05982,0.21431 -4.12577,0.50256 -6.20333,0.90378 -0.003,5.6e-4 -0.006,6.2e-4 -0.01,0.001 -0.0845,0.0144 -0.16942,0.0344 -0.25382,0.0512 -0.75104,0.14816 -1.50296,0.3095 -2.25723,0.48616 -0.22629,0.053 -0.45296,0.11008 -0.67958,0.16582 -0.61226,0.15056 -1.22567,0.30912 -1.84039,0.47997 -0.0808,0.024 -0.16163,0.043 -0.24245,0.0661 -0.0963,0.0269 -0.19396,0.0595 -0.29065,0.087 -0.59087,0.16973 -1.18253,0.34615 -1.77597,0.53607 -3.8e-4,9e-5 -6.6e-4,-1.2e-4 -0.001,0 -0.24037,0.0766 -0.48176,0.16073 -0.72254,0.24065 -0.0112,0.003 -0.024,0.01 -0.0341,0.0112 -0.50322,0.16823 -1.00671,0.33514 -1.51197,0.51861 -0.39555,0.14304 -0.79303,0.30091 -1.18991,0.45374 -0.006,0.002 -0.01,0.003 -0.0112,0.006 -0.37926,0.14672 -0.75755,0.28556 -1.13808,0.44128 -0.003,0.001 -0.006,0.003 -0.01,0.003 -0.79292,0.32388 -1.58856,0.66501 -2.38732,1.03093 0.2628,-0.9111 0.53875,-1.81661 0.82987,-2.71632 0.29123,-0.90009 0.59757,-1.79477 0.92209,-2.68145 0.97354,-2.65973 2.10772,-5.2545 3.46988,-7.7576 0,0 0,-10e-4 0,-10e-4 1.3624,-2.5034 2.95291,-4.91397 4.83784,-7.20659 z m -15.29166,110.15221 c -1.42334,0 -2.82475,0.056 -4.20121,0.1584 -3.89829,0.28944 -7.58808,0.97225 -10.94391,1.98211 0.21279,0.43518 0.50314,0.89339 0.90314,1.36377 l 6.08712,7.28888 3.65048,4.36939 0.41305,0.4949 c 0.92191,1.1011 2.08421,1.7498 3.28922,1.9472 v 7.7438 h 1.60043 v -7.7451 c 1.19947,-0.2003 2.35531,-0.8492 3.27154,-1.9459 l 10.16328,-12.15317 c 0.39361,-0.47678 0.7002,-0.927 0.9082,-1.36377 -4.232,-1.2717 -8.98134,-2.02139 -14.01587,-2.1205 -0.37489,-0.01 -0.74744,-0.021 -1.12547,-0.021 z" />
      </g>
    </g>
  </g>
</svg>
