<?xml version="1.0" encoding="UTF-8" standalone="no"?>
<!-- Created with Inkscape (http://www.inkscape.org/) -->

<svg
   width="1000"
   height="1000"
   viewBox="0 0 264.58333 264.58334"
   version="1.1"
   id="svg369542"
   inkscape:version="1.1.1 (3bf5ae0d25, 2021-09-20)"
   sodipodi:docname="pisi-beyaz-mavi.svg"
   xmlns:inkscape="http://www.inkscape.org/namespaces/inkscape"
   xmlns:sodipodi="http://sodipodi.sourceforge.net/DTD/sodipodi-0.dtd"
   xmlns="http://www.w3.org/2000/svg"
   xmlns:svg="http://www.w3.org/2000/svg">
  <sodipodi:namedview
     id="namedview369544"
     pagecolor="#ffffff"
     bordercolor="#666666"
     borderopacity="1.0"
     inkscape:pageshadow="2"
     inkscape:pageopacity="0.0"
     inkscape:pagecheckerboard="0"
     inkscape:document-units="mm"
     showgrid="false"
     units="px"
     inkscape:zoom="0.39685476"
     inkscape:cx="158.74825"
     inkscape:cy="624.91376"
     inkscape:window-width="1920"
     inkscape:window-height="995"
     inkscape:window-x="0"
     inkscape:window-y="20"
     inkscape:window-maximized="1"
     inkscape:current-layer="g342499" />
  <defs
     id="defs369539" />
  <g
     inkscape:label="Katman 1"
     inkscape:groupmode="layer"
     id="layer1">
    <g
       id="g342501"
       transform="matrix(0.71615617,0,0,0.71615617,-0.5018178,2.5057979)"
       style="fill:#1f549e;fill-opacity:1">
      <g
         id="g342401"
         transform="matrix(0.7936967,0,0,0.7936967,363.80533,-3.536509)"
         style="fill:#1f549e;fill-opacity:1" />
      <g
         id="g342499"
         transform="matrix(1.709902,0,0,1.7325968,79.788353,-1421.9892)"
         style="fill:#1f549e;fill-opacity:1">
        <g
           inkscape:export-ydpi="598.79999"
           inkscape:export-xdpi="598.79999"
           inkscape:export-filename="D:\Dropbox\PiSiLinux\logo\g4295-7-3.png"
           transform="translate(4.4166628,858.48748)"
           id="g342403"
           style="fill:#1f549e;fill-opacity:1" />
        <g
           inkscape:export-ydpi="598.79999"
           inkscape:export-xdpi="598.79999"
           inkscape:export-filename="D:\Dropbox\PiSiLinux\logo\g4295-7-3.png"
           transform="translate(3.8787028,858.0599)"
           id="g342495"
           style="fill:#1f549e;fill-opacity:1">
          <g
             id="g342475"
             style="fill:#1f549e;fill-opacity:1">
            <g
               id="g342465"
               style="fill:#1f549e;fill-opacity:1">
              <linearGradient
                 y2="103.7656"
                 x2="46.650902"
                 y1="103.7656"
                 x1="16.9111"
                 gradientUnits="userSpaceOnUse"
                 id="linearGradient342463">
                <stop
                   id="stop342459"
                   style="stop-color:#EC008C"
                   offset="0" />
                <stop
                   id="stop342461"
                   style="stop-color:#C4008C"
                   offset="1" />
              </linearGradient>
            </g>
            <g
               id="g342473"
               style="fill:#1f549e;fill-opacity:1">
              <linearGradient
                 y2="104.6143"
                 x2="53.023399"
                 y1="104.6143"
                 x1="23.283199"
                 gradientUnits="userSpaceOnUse"
                 id="linearGradient342471">
                <stop
                   id="stop342467"
                   style="stop-color:#EC008C"
                   offset="0" />
                <stop
                   id="stop342469"
                   style="stop-color:#C4008C"
                   offset="1" />
              </linearGradient>
            </g>
          </g>
          <g
             id="g342493"
             style="fill:#1f549e;fill-opacity:1">
            <g
               id="g342483"
               style="fill:#1f549e;fill-opacity:1">
              <linearGradient
                 y2="103.7656"
                 x2="111.0859"
                 y1="103.7656"
                 x1="81.346703"
                 gradientUnits="userSpaceOnUse"
                 id="linearGradient342481">
                <stop
                   id="stop342477"
                   style="stop-color:#EC008C"
                   offset="0" />
                <stop
                   id="stop342479"
                   style="stop-color:#C4008C"
                   offset="1" />
              </linearGradient>
            </g>
            <g
               id="g342491"
               style="fill:#1f549e;fill-opacity:1">
              <linearGradient
                 y2="104.6133"
                 x2="104.7119"
                 y1="104.6133"
                 x1="74.973602"
                 gradientUnits="userSpaceOnUse"
                 id="linearGradient342489">
                <stop
                   id="stop342485"
                   style="stop-color:#EC008C"
                   offset="0" />
                <stop
                   id="stop342487"
                   style="stop-color:#C4008C"
                   offset="1" />
              </linearGradient>
            </g>
          </g>
        </g>
        <g
           inkscape:export-ydpi="598.79999"
           inkscape:export-xdpi="598.79999"
           inkscape:export-filename="D:\Dropbox\PiSiLinux\logo\g4295-7-3.png"
           style="fill:#1f549e;fill-opacity:1"
           transform="translate(-30.549898,-35.03055)"
           id="g342497" />
        <g
           id="g370386"
           transform="matrix(0.64673625,0,0,0.63826483,-70.745657,344.30453)">
          <g
             id="g290352"
             style="fill:#ececec;fill-opacity:1"
             transform="matrix(2.4739658,0,0,2.5068017,36.316165,-1399.289)">
            <path
               id="path291379"
               style="color:#000000;fill:#ececec;fill-opacity:1;stroke-width:1.1683;-inkscape-stroke:none"
               d="m 206.58594,118.3418 -0.32617,1.28515 c 0,0 -2.07771,8.19993 -2.80665,18.68946 -0.71479,10.28639 -0.20654,22.84647 5.07813,32.32421 -3.82062,7.40287 -6.85047,14.77572 -8.9082,21.33594 l -0.14063,0.44532 0.14063,0.44531 c 1.79191,5.71124 4.33156,11.07914 7.48242,16.00586 0.92605,1.44798 1.92122,2.84681 2.95117,4.21484 1.96891,2.61519 4.12323,5.07579 6.43945,7.36914 2.50359,2.47887 5.1955,4.76128 8.06641,6.80664 l -14.85742,11.70313 -2.1211,1.66992 c -0.38068,0.30341 -0.48977,0.91669 -0.24023,1.38476 0.24721,0.461 0.75408,0.59013 1.13477,0.28907 l 17.69531,-13.93946 c 1.02638,0.68617 2.06745,1.35238 3.13281,1.98047 l -14.32812,11.28516 c -0.38184,0.29753 -0.48861,0.91438 -0.24024,1.3789 0.24489,0.46454 0.75719,0.59637 1.13672,0.29883 l 15.19141,-11.9707 c 1.65913,0.91013 3.36283,1.74806 5.10351,2.51367 4.31493,1.89784 8.86995,3.3356 13.60352,4.25977 1.21193,0.23663 2.43941,0.42746 3.67383,0.5957 2.85474,0.38909 5.76313,0.60352 8.72265,0.60352 11.10857,0 21.57084,-2.81211 30.74414,-7.76758 l 4.61133,3.63476 10.32031,8.13086 c 0.37953,0.29754 0.88291,0.16218 1.13477,-0.29883 0.24605,-0.46452 0.13697,-1.08137 -0.24024,-1.3789 l -10.53711,-8.29883 -3.52343,-2.77539 c 1.07201,-0.62277 2.12124,-1.28155 3.15429,-1.96289 l 1.63477,1.28906 15.77344,12.42188 c 0.38184,0.30105 0.88987,0.17193 1.13476,-0.28907 0.24722,-0.46806 0.13928,-1.07939 -0.24023,-1.38281 l -15.99219,-12.5957 -0.6875,-0.54297 c 0.41075,-0.28883 0.81096,-0.59258 1.21485,-0.89062 11.20532,-8.26871 19.75235,-20.03597 24.05468,-33.74024 l 0.14063,-0.44531 -0.14063,-0.44531 c -1.46948,-4.68222 -3.44534,-9.78156 -5.84375,-15.00782 -0.83183,-1.81262 -1.71199,-3.63904 -2.64258,-5.4707 5.61516,-9.49362 6.19729,-22.31855 5.49415,-32.81445 -0.70827,-10.5721 -2.79883,-18.86133 -2.79883,-18.86133 l -0.32617,-1.28711 -1.29493,0.19531 c -9.37436,1.41971 -16.83033,4.30444 -22.75195,7.91602 -1.90024,1.15894 -3.64577,2.39113 -5.24219,3.67578 -1.15892,0.9326 -2.25023,1.89025 -3.25976,2.86719 -3.43294,-2.50884 -7.01982,-4.57058 -10.73438,-6.0625 -4.22983,-1.69887 -8.62554,-2.65821 -13.15625,-2.65821 -3.82362,0 -7.54957,0.68643 -11.16211,1.92188 l -0.39453,0.11719 c -0.005,0.0137 -0.0105,0.0273 -0.0156,0.041 -3.74961,1.329 -7.3781,3.23436 -10.85352,5.61719 -0.10498,0.072 -0.21141,0.14475 -0.31641,0.2168 -0.18718,0.12842 -0.3728,0.25821 -0.55859,0.39062 -0.90875,-0.86704 -1.88138,-1.71875 -2.9082,-2.55078 -6.57456,-5.32724 -15.63309,-9.80234 -28.08203,-11.6875 z"
               transform="matrix(0.86160424,0,0,0.85031833,-157.74218,767.50482)" />
          </g>
          <path
             id="path291515"
             style="fill:#3261ad;fill-opacity:1;stroke:none;stroke-width:5.39729;stroke-linecap:square;stroke-linejoin:round;stroke-miterlimit:4;stroke-dasharray:none;stroke-opacity:0.416882"
             d="m 204.90341,790.01669 c -8.15035,0 -16.09251,1.459 -23.79292,4.09246 l -0.84097,0.25396 c -0.0107,0.0275 -0.0192,0.0558 -0.0292,0.0833 -7.99387,2.83291 -15.73003,6.89769 -23.13929,11.97764 -0.22378,0.15348 -0.45064,0.30441 -0.67446,0.45797 -0.39899,0.27376 -0.79465,0.55042 -1.19068,0.83264 -9.04461,10.28381 -12.08177,17.65202 -16.84438,29.93371 -0.39681,1.0239 -0.78307,2.05281 -1.1782,3.08079 -0.99454,2.58716 -2.00256,5.15318 -2.98089,7.76029 -4.5e-4,10e-4 4.7e-4,0.002 0,0.004 -0.2922,0.77868 -0.56734,1.56396 -0.85762,2.3439 -0.42082,1.13076 -0.8203,2.26446 -1.23649,3.39721 -0.0367,0.0997 -0.0716,0.19994 -0.10828,0.29974 -3.71217,10.11445 -7.18434,20.24742 -10.26238,30.22931 -0.002,0.009 -0.006,0.0171 -0.009,0.0249 -0.62519,2.02848 -1.26955,4.06405 -1.8568,6.07417 -0.004,0.0107 -0.004,0.0222 -0.009,0.0333 -0.217,0.74273 -0.4755,1.50417 -0.68693,2.24398 -1.35432,4.73876 -2.58437,9.41158 -3.68032,13.99683 -0.049,0.20548 -0.0972,0.41109 -0.1458,0.61615 -1.08926,4.60278 -2.04216,9.11519 -2.81436,13.5014 -0.27506,1.56245 -0.49833,3.08713 -0.72856,4.61702 -0.009,0.0603 -0.0192,0.123 -0.0292,0.18311 -0.0893,0.59808 -0.20079,1.21404 -0.28309,1.80683 -0.30077,2.16799 -0.55692,4.29822 -0.75772,6.39058 0.001,-10e-4 0.002,-0.002 0.004,-0.004 -2.8e-4,0.002 2.5e-4,0.006 0,0.009 0.13812,-0.14985 0.27815,-0.29576 0.41631,-0.44546 3.93946,-4.26885 7.92545,-8.45146 11.961,-12.53137 5.17829,-5.22642 10.44836,-10.26922 15.89525,-14.96684 0.0107,-0.009 0.0192,-0.017 0.0292,-0.0249 l 0.14154,-0.11659 7.48967,-6.1283 c 1.89864,-1.47622 3.81152,-2.92629 5.75776,-4.30894 0.002,-10e-4 0.002,-0.002 0.004,-0.004 0.63839,-0.45405 1.29208,-0.8764 1.93592,-1.31975 1.71168,-1.17702 3.44308,-2.31737 5.19573,-3.41387 0.65667,-0.4115 1.31475,-0.8203 1.97753,-1.21982 2.29822,-1.38333 4.61847,-2.72007 6.99424,-3.95093 0.0501,-0.026 0.0998,-0.0533 0.14985,-0.0791 -4.71414,9.52072 -9.48932,19.33336 -14.07591,29.18433 -9.17448,19.70381 -17.59646,39.55615 -23.27667,57.51517 -1.42006,4.48977 -2.6674,8.86402 -3.71362,13.08506 -1.0462,4.22113 -1.89188,8.29317 -2.50211,12.18166 9.6e-4,-0.002 0.002,-0.002 0.004,-0.004 2.2e-4,-0.001 -1.9e-4,-0.002 0,-0.004 0.0461,-0.0786 0.0955,-0.15454 0.14154,-0.23313 4.09259,-6.99908 8.25665,-13.92855 12.47306,-20.80372 0.89446,-1.45815 1.77998,-2.92421 2.68113,-4.37556 0.9413,-1.51643 1.89448,-3.02107 2.8435,-4.52961 1.73108,-2.75093 3.47429,-5.4916 5.2332,-8.21408 0.92798,-1.43683 1.8614,-2.86815 2.7977,-4.29647 1.90388,-2.90339 3.82953,-5.78577 5.77025,-8.65121 0.79612,-1.17593 1.59114,-2.35299 2.39385,-3.5221 2.2214,-3.23411 4.4735,-6.43453 6.74862,-9.61293 0.5955,-0.83225 1.18247,-1.67388 1.78187,-2.50211 5.90126,-8.15086 11.9863,-16.10815 18.30993,-23.81788 0.20697,-0.25249 0.42113,-0.49745 0.62864,-0.7494 2.86651,-3.47921 5.78547,-6.90809 8.75114,-10.28321 2.02086,-2.30045 4.05418,-4.58722 6.12413,-6.83604 0.0273,-0.0296 0.0561,-0.0578 0.0834,-0.0874 0.94921,-1.03044 1.91691,-2.04077 2.8768,-3.05998 1.72146,-1.82803 3.45962,-3.63821 5.21655,-5.42888 0.93461,-0.95256 1.86108,-1.91429 2.80601,-2.85598 2.33348,-2.3254 4.70806,-4.60849 7.10666,-6.86517 1.07884,-1.01511 2.16735,-2.02181 3.25981,-3.02252 2.13936,-1.95948 4.30148,-3.89263 6.49466,-5.79523 1.19831,-1.03966 2.41133,-2.06282 3.62618,-3.08497 2.06689,-1.73884 4.15788,-3.45071 6.27401,-5.13743 1.0145,-0.8087 2.02553,-1.62245 3.05165,-2.41885 6.60012,-5.12231 13.42463,-10.00896 20.5331,-14.59215 -4.8477,-0.20165 -9.66771,-0.33731 -14.48391,-0.30392 -0.52158,0.004 -1.04381,0.0213 -1.56537,0.0292 -1.84228,0.0281 -3.68499,0.084 -5.52878,0.17479 -0.60047,0.0294 -1.20187,0.0629 -1.8027,0.1 -1.86285,0.11532 -3.72709,0.27316 -5.5954,0.47044 -0.50782,0.0535 -1.01535,0.0938 -1.52373,0.15411 -0.009,9.8e-4 -0.0171,0.002 -0.0249,0.004 -2.00055,0.2378 -4.00884,0.5472 -6.02005,0.89928 -0.55611,0.0972 -1.11237,0.18459 -1.66945,0.2914 -2.00959,0.38563 -4.02441,0.8534 -6.04919,1.37389 -0.56566,0.14538 -1.13157,0.2886 -1.69862,0.44546 -0.26542,0.0733 -0.52942,0.13216 -0.79516,0.20825 -1.04874,0.29964 -2.1102,0.69663 -3.16407,1.03663 -1.16941,0.37857 -2.33317,0.71668 -3.50961,1.14907 -2.43643,0.89207 -4.88536,1.88788 -7.35644,3.03501 1.62637,-5.71242 3.57185,-11.2976 6.08248,-16.64881 1.25531,-2.6756 2.65305,-5.29171 4.22153,-7.83939 5.32618,-9.6082 14.66192,-16.87612 20.26665,-25.82458 -9.01621,-3.62127 -18.38602,-5.66616 -28.04359,-5.66616 z"
             sodipodi:nodetypes="scccssccsscsscscscsscsssscccccscccsccccsccsscccccccccccccsccscsssscscsccsssccscscssscccsccss" />
        </g>
      </g>
    </g>
  </g>
</svg>
